<svg width="35" height="36" viewBox="0 0 35 36" fill="none" xmlns="http://www.w3.org/2000/svg">
<path d="M25.6616 13.461C25.6616 20.5233 19.5786 22.2896 16.5379 22.2896C13.8763 22.2896 8.55469 20.5233 8.55469 13.461C8.55469 10.4716 10.2768 8.54422 11.7779 7.53919C12.5406 7.02599 13.5214 7.39521 13.6483 8.28477C13.902 10.0596 15.5086 11.3825 16.4809 9.8586C17.3106 8.55563 17.6113 6.79647 17.6113 5.73727C17.6113 4.16914 19.2508 3.17409 20.5309 4.13493C23.0242 6.00528 25.6616 9.14011 25.6616 13.461Z" stroke="#3D4543" stroke-width="2.10137"/>
<path d="M28.5123 22.2896L5.70312 32.2686M5.70312 22.2896L12.831 25.4088M28.5123 32.2686L20.6716 28.8387M21.3844 15.1617C21.0993 16.1126 19.8448 18.0129 17.1077 18.0129" stroke="#3D4543" stroke-width="2.10137" stroke-linecap="round"/>
</svg>
