<svg width="35" height="36" viewBox="0 0 35 36" fill="none" xmlns="http://www.w3.org/2000/svg">
<path d="M17.4774 5.18271C16.8811 5.20957 16.2688 5.23642 15.737 5.29551C13.6153 5.55871 11.8158 6.26774 10.2957 7.12718C10.0379 7.27758 9.95194 7.60524 10.1023 7.86307L11.8105 10.8227C10.054 12.0206 9.00119 13.9113 8.80782 15.9041L3.28058 25.4868C2.39429 27.0231 2.92607 28.9998 4.46231 29.8861C5.84814 30.6864 7.5885 30.3265 8.50165 29.2146C9.678 30.0579 11.4452 29.9451 12.5732 28.8171L14.1685 27.2272C14.5392 27.442 14.9205 27.6247 15.3019 27.7858C15.5705 27.9094 15.8874 27.7804 16.011 27.5119C16.1345 27.2433 16.011 26.921 15.7424 26.8028C15.6779 26.776 15.6188 26.7491 15.549 26.7223L17.1927 26.2818C17.4774 26.2066 17.6492 25.9112 17.574 25.6265C17.4988 25.3418 17.2034 25.1699 16.9187 25.2451L14.2384 25.9649L12.8525 24.5791C13.105 24.2245 13.2554 23.8002 13.2554 23.3382C13.2554 22.9193 13.1265 22.5325 12.917 22.1995L18.9277 16.1888L20.4746 21.9578C20.5498 22.2425 20.8453 22.4144 21.1353 22.3392C21.42 22.264 21.5919 21.9685 21.5167 21.6838L19.8139 15.3133L22.6716 12.4557C23.5901 14.0349 24.5086 15.6195 25.4218 17.2094C25.5722 17.4672 25.8998 17.5532 26.1523 17.4082C26.4101 17.2578 26.496 16.9301 26.351 16.6723L23.6653 12.026C22.7414 10.4253 21.3018 9.33485 19.5722 8.81382L17.0315 6.27312C21.4146 6.10123 24.5301 8.28204 26.1684 10.9893L30.3528 18.2354C30.5032 18.4932 30.8362 18.5791 31.094 18.4341C31.3518 18.2837 31.4378 17.956 31.2928 17.6982L27.1084 10.4467C25.1424 7.04661 21.4469 5.20957 17.4774 5.18271ZM15.2804 6.445L15.2751 8.79233C14.3565 9.32411 13.5938 9.76457 12.729 10.2641L11.3055 7.79861C12.6216 7.09495 13.9752 6.66523 15.2804 6.445ZM16.3601 7.11643L18.9008 9.65714C18.9653 9.72159 19.0512 9.76994 19.1425 9.79679C20.2329 10.0869 21.2428 10.6885 22.027 11.5694L19.2123 14.384L15.0172 10.1889C15.3664 9.9848 15.6833 9.80217 16.0915 9.56582C16.258 9.46913 16.3547 9.29188 16.3547 9.10388L16.3601 7.11643ZM14.0504 10.7475L18.4496 15.1468L12.1381 21.4582C11.832 21.2863 11.4828 21.1789 11.1068 21.1789C10.6449 21.1789 10.2151 21.3293 9.866 21.5818L7.90541 19.6212L9.78543 16.3607C9.8284 16.2909 9.84988 16.2103 9.85525 16.1297C9.99491 14.2497 11.0316 12.4825 12.7988 11.4619C13.2339 11.2149 13.6744 10.9624 14.0504 10.7475ZM7.35215 20.5881L9.17845 22.4144C9.04416 22.6937 8.96359 23.0052 8.96359 23.3329C8.96359 24.5146 9.93045 25.4815 11.1122 25.4815C11.4398 25.4815 11.7514 25.4009 12.0307 25.2666L13.3252 26.5611L11.8212 28.0651C10.9725 28.9138 9.62965 28.9138 8.78096 28.0651C8.53387 27.818 8.1149 27.8718 7.93764 28.1779C7.33067 29.2093 6.03614 29.553 4.99945 28.9568C3.96276 28.3552 3.61362 27.0607 4.21522 26.024L7.35215 20.5881ZM11.1068 22.2532C11.7084 22.2532 12.1811 22.7259 12.1811 23.3275C12.1811 23.9291 11.7084 24.4018 11.1068 24.4018C10.5052 24.4018 10.0325 23.9291 10.0325 23.3275C10.0325 22.7259 10.5106 22.2532 11.1068 22.2532Z" fill="#3D4543" stroke="#3D4543" stroke-width="0.700457"/>
</svg>
