<svg width="35" height="36" viewBox="0 0 35 36" fill="none" xmlns="http://www.w3.org/2000/svg">
<path d="M5.40967 5.18271L7.78563 9.93462H12.5375L10.1616 5.18271H13.3295L15.7055 9.93462H20.4574L18.0814 5.18271H21.2494L23.6253 9.93462H28.3772L26.0013 5.18271H28.8049C29.5335 5.18271 30.1418 5.42717 30.6296 5.91609C31.1185 6.40395 31.363 7.01219 31.363 7.74082V27.9681C31.363 28.6967 31.1191 29.305 30.6312 29.7928C30.1423 30.2818 29.5335 30.5262 28.8049 30.5262H5.40967C4.68105 30.5262 4.0728 30.2823 3.58494 29.7944C3.09602 29.3055 2.85156 28.6967 2.85156 27.9681V7.74082C2.85156 7.01219 3.09602 6.40395 3.58494 5.91609C4.0728 5.42717 4.68105 5.18271 5.40967 5.18271ZM4.43553 11.5186V27.9681C4.43553 28.2522 4.52687 28.4855 4.70956 28.6682C4.89224 28.8509 5.12561 28.9422 5.40967 28.9422H28.8049C29.089 28.9422 29.3223 28.8509 29.505 28.6682C29.6877 28.4855 29.779 28.2522 29.779 27.9681V11.5186H4.43553ZM11.8675 25.9565H22.3471V25.6951C22.3471 24.8588 21.8523 24.1655 20.8629 23.6154C19.8745 23.0641 18.6226 22.7885 17.1073 22.7885C15.592 22.7885 14.3401 23.0641 13.3517 23.6154C12.3622 24.1645 11.8675 24.8577 11.8675 25.6951V25.9565ZM17.1073 20.2304C17.7757 20.2304 18.3386 20.0013 18.7958 19.543C19.2541 19.0857 19.4832 18.5229 19.4832 17.8545C19.4832 17.186 19.2541 16.6232 18.7958 16.166C18.3386 15.7077 17.7757 15.4785 17.1073 15.4785C16.4388 15.4785 15.876 15.7077 15.4188 16.166C14.9605 16.6232 14.7313 17.186 14.7313 17.8545C14.7313 18.5229 14.9605 19.0857 15.4188 19.543C15.876 20.0013 16.4388 20.2304 17.1073 20.2304Z" fill="#3D4543"/>
</svg>
