<svg width="29" height="30" viewBox="0 0 29 30" fill="none" xmlns="http://www.w3.org/2000/svg">
<path d="M4.33077 8.88507H21.6413V19.0677C21.6413 20.148 21.2122 21.1839 20.4483 21.9478C19.6845 22.7117 18.6485 23.1408 17.5682 23.1408H7.38556C6.30533 23.1408 5.26932 22.7117 4.50548 21.9478C3.74162 21.1839 3.3125 20.148 3.3125 19.0677V9.90334C3.3125 9.63327 3.41978 9.37427 3.61075 9.18332C3.8017 8.99236 4.0607 8.88507 4.33077 8.88507Z" stroke="#3D4543" stroke-width="2.10137" stroke-linecap="round" stroke-linejoin="round"/>
<path d="M1.27734 28.2321H27.7523" stroke="#3D4543" stroke-width="2.10137" stroke-linecap="round" stroke-linejoin="round"/>
<path d="M21.6445 8.88507H23.6811C24.7612 8.88507 25.7972 9.31419 26.5611 10.0781C27.325 10.8419 27.7541 11.8779 27.7541 12.9581C27.7541 14.0384 27.325 15.0744 26.5611 15.8382C25.7972 16.6021 24.7612 17.0312 23.6811 17.0312H21.6445" stroke="#3D4543" stroke-width="2.10137" stroke-linecap="round" stroke-linejoin="round"/>
<path d="M6.36719 1.7572V3.79373" stroke="#3D4543" stroke-width="2.10137" stroke-linecap="round" stroke-linejoin="round"/>
<path d="M16.5508 1.7572V3.79373" stroke="#3D4543" stroke-width="2.10137" stroke-linecap="round" stroke-linejoin="round"/>
<path d="M11.4609 1.7572V3.79373" stroke="#3D4543" stroke-width="2.10137" stroke-linecap="round" stroke-linejoin="round"/>
</svg>
