<svg width="35" height="36" viewBox="0 0 35 36" fill="none" xmlns="http://www.w3.org/2000/svg">
<path d="M25.9271 20.1512C24.9226 20.1512 23.9407 20.4491 23.1056 21.0071C22.2704 21.5652 21.6195 22.3583 21.2351 23.2863C20.8507 24.2143 20.7501 25.2355 20.9461 26.2206C21.142 27.2058 21.6257 28.1107 22.336 28.8209C23.0462 29.5312 23.9512 30.0149 24.9363 30.2108C25.9215 30.4068 26.9426 30.3062 27.8706 29.9218C28.7986 29.5375 29.5917 28.8865 30.1498 28.0513C30.7078 27.2162 31.0057 26.2343 31.0057 25.2298C31.0015 23.8842 30.465 22.5949 29.5135 21.6434C28.562 20.6919 27.2727 20.1555 25.9271 20.1512V20.1512ZM8.28563 20.1512C7.28118 20.1512 6.29929 20.4491 5.46412 21.0071C4.62894 21.5652 3.97801 22.3583 3.59362 23.2863C3.20923 24.2143 3.10866 25.2355 3.30462 26.2206C3.50058 27.2058 3.98427 28.1107 4.69452 28.8209C5.40478 29.5312 6.3097 30.0149 7.29485 30.2108C8.28 30.4068 9.30114 30.3062 10.2291 29.9218C11.1571 29.5375 11.9503 28.8865 12.5083 28.0513C13.0664 27.2162 13.3642 26.2343 13.3642 25.2298C13.36 23.8842 12.8236 22.5949 11.8721 21.6434C10.9206 20.6919 9.63126 20.1555 8.28563 20.1512Z" stroke="#3D4543" stroke-width="2.10137" stroke-miterlimit="10"/>
<path d="M17.1087 24.9625V19.2157L12.832 16.4091L18.1779 10.5286L20.8509 15.3399H24.593" stroke="#3D4543" stroke-width="2.10137" stroke-linecap="round" stroke-linejoin="round"/>
<path d="M21.3817 9.99402C21.6633 9.995 21.9424 9.94014 22.2027 9.8326C22.463 9.72507 22.6994 9.56699 22.8983 9.36753C23.0971 9.16806 23.2545 8.93115 23.3612 8.6705C23.4679 8.40985 23.5219 8.13063 23.52 7.84898C23.5232 7.56875 23.4704 7.2907 23.3648 7.0311C23.2592 6.7715 23.1029 6.53557 22.905 6.33708C22.7072 6.1386 22.4717 5.98156 22.2124 5.87515C21.9532 5.76873 21.6753 5.71507 21.3951 5.71731C21.1142 5.71643 20.836 5.77087 20.5762 5.87752C20.3165 5.98417 20.0802 6.14095 19.881 6.33889C19.4788 6.73866 19.2518 7.28185 19.25 7.84898C19.2482 8.41611 19.4718 8.96071 19.8716 9.36299C20.2714 9.76526 20.8146 9.99225 21.3817 9.99402Z" fill="#3D4543"/>
</svg>
