<svg width="35" height="36" viewBox="0 0 35 36" fill="none" xmlns="http://www.w3.org/2000/svg">
<path d="M19.7802 6.61113C19.5389 6.61113 19.3301 6.52296 19.1538 6.34662C18.9774 6.17028 18.8892 5.96146 18.8892 5.72015C18.8892 5.60878 18.9264 5.46492 19.0006 5.28858C19.0749 5.11224 19.1584 4.92662 19.2512 4.73171C19.344 4.53681 19.4415 4.35119 19.5436 4.17485C19.6457 3.99851 19.7245 3.85929 19.7802 3.7572C19.8359 3.85929 19.9102 3.99851 20.003 4.17485C20.0958 4.35119 20.1932 4.53681 20.2953 4.73171C20.3974 4.92662 20.4856 5.11224 20.5598 5.28858C20.6341 5.46492 20.6712 5.60878 20.6712 5.72015C20.6712 5.96146 20.583 6.17028 20.4067 6.34662C20.2304 6.52296 20.0215 6.61113 19.7802 6.61113ZM31.363 15.521V31.5586H2.85156V15.521L18.8892 10.1751V7.9476C18.8892 7.86407 18.9217 7.79447 18.9867 7.73878C19.0517 7.68309 19.1352 7.63669 19.2373 7.59956C19.3394 7.56244 19.4368 7.53924 19.5296 7.52996C19.6225 7.52068 19.706 7.51139 19.7802 7.50211C19.8452 7.50211 19.9241 7.50675 20.0169 7.51603C20.1097 7.52532 20.2072 7.54852 20.3093 7.58564C20.4113 7.62277 20.4949 7.66917 20.5598 7.72486C20.6248 7.78055 20.6619 7.85479 20.6712 7.9476V9.57643L24.2351 8.3931L31.363 15.521ZM19.7802 13.739C19.7153 13.739 19.6364 13.7344 19.5436 13.7251C19.4508 13.7158 19.3533 13.6926 19.2512 13.6555C19.1491 13.6183 19.0656 13.5719 19.0006 13.5162C18.9357 13.4606 18.8985 13.3863 18.8892 13.2935V12.0545L8.48981 15.521H28.8432L23.7479 10.4256L20.6712 11.4558V13.2935C20.6712 13.377 20.6387 13.4466 20.5738 13.5023C20.5088 13.558 20.4253 13.6044 20.3232 13.6415C20.2211 13.6787 20.1236 13.7019 20.0308 13.7111C19.938 13.7204 19.8545 13.7297 19.7802 13.739ZM4.63353 17.3029V22.6488H29.581V17.3029H4.63353ZM29.581 29.7767V24.4308H4.63353V29.7767H29.581Z" fill="#3D4543"/>
</svg>
