<svg width="35" height="36" viewBox="0 0 35 36" fill="none" xmlns="http://www.w3.org/2000/svg">
<path d="M29.1698 11.4352H24.3613C24.4147 11.39 24.4695 11.3461 24.5216 11.2982C24.9379 10.9283 25.2735 10.4765 25.5072 9.97109C25.7409 9.46564 25.8679 8.91741 25.88 8.36067C25.898 7.75161 25.7914 7.1453 25.5666 6.57896C25.3418 6.01262 25.0036 5.4982 24.5728 5.06727C24.142 4.63635 23.6277 4.29803 23.0614 4.07307C22.4952 3.84811 21.8889 3.74126 21.2798 3.75909C20.7229 3.77108 20.1744 3.89792 19.6687 4.13166C19.163 4.3654 18.711 4.70102 18.341 5.11749C17.829 5.71088 17.4127 6.38055 17.1073 7.10233C16.8018 6.38055 16.3856 5.71088 15.8736 5.11749C15.5036 4.70102 15.0516 4.3654 14.5459 4.13166C14.0402 3.89792 13.4917 3.77108 12.9347 3.75909C12.3257 3.74126 11.7194 3.84811 11.1531 4.07307C10.5869 4.29803 10.0725 4.63635 9.64174 5.06727C9.21095 5.4982 8.87278 6.01262 8.64798 6.57896C8.42319 7.1453 8.31653 7.75161 8.33453 8.36067C8.34672 8.91741 8.47365 9.46564 8.70738 9.97109C8.94112 10.4765 9.27663 10.9283 9.69294 11.2982C9.74503 11.3434 9.79986 11.3873 9.85332 11.4352H5.04475C4.46308 11.4352 3.90523 11.6663 3.49393 12.0776C3.08263 12.4889 2.85156 13.0468 2.85156 13.6284V18.0148C2.85156 18.5965 3.08263 19.1543 3.49393 19.5656C3.90523 19.9769 4.46308 20.208 5.04475 20.208V28.9807C5.04475 29.5624 5.27582 30.1203 5.68712 30.5316C6.09842 30.9429 6.65627 31.1739 7.23794 31.1739H26.9766C27.5583 31.1739 28.1161 30.9429 28.5274 30.5316C28.9388 30.1203 29.1698 29.5624 29.1698 28.9807V20.208C29.7515 20.208 30.3093 19.9769 30.7206 19.5656C31.1319 19.1543 31.363 18.5965 31.363 18.0148V13.6284C31.363 13.0468 31.1319 12.4889 30.7206 12.0776C30.3093 11.6663 29.7515 11.4352 29.1698 11.4352ZM19.9858 6.57048C20.1595 6.37874 20.3709 6.22497 20.6068 6.11882C20.8426 6.01267 21.0979 5.95643 21.3566 5.95364H21.4238C21.7269 5.95554 22.0267 6.01793 22.3054 6.13715C22.5841 6.25637 22.8363 6.43003 23.0471 6.64795C23.2578 6.86587 23.423 7.12366 23.5328 7.40623C23.6427 7.68879 23.6951 7.99044 23.6868 8.2935C23.6841 8.55216 23.6278 8.80744 23.5217 9.04333C23.4155 9.27922 23.2618 9.49062 23.07 9.66424C21.7692 10.8157 19.6103 11.2214 18.2724 11.364C18.4369 9.91235 18.8892 7.80278 19.9858 6.57048ZM11.2008 6.61982C11.6256 6.19502 12.201 5.95511 12.8018 5.95227H12.8689C13.1276 5.95506 13.3829 6.0113 13.6188 6.11745C13.8547 6.2236 14.0661 6.37737 14.2397 6.56911C15.3897 7.86857 15.7955 10.0234 15.938 11.3557C14.6057 11.2187 12.4509 10.8074 11.1514 9.65739C10.9597 9.48376 10.8059 9.27237 10.6997 9.03648C10.5936 8.80059 10.5374 8.5453 10.5346 8.28665C10.5261 7.97855 10.5803 7.67194 10.6938 7.38542C10.8074 7.09889 10.978 6.83843 11.1953 6.61982H11.2008ZM5.04475 13.6284H16.0107V18.0148H5.04475V13.6284ZM7.23794 20.208H16.0107V28.9807H7.23794V20.208ZM26.9766 28.9807H18.2039V20.208H26.9766V28.9807ZM29.1698 18.0148H18.2039V13.6284H29.1698V18.0148Z" fill="#3D4543"/>
</svg>
