<svg width="36" height="36" viewBox="0 0 36 36" fill="none" xmlns="http://www.w3.org/2000/svg">
<path d="M31.7071 18.4553H22.8588C22.5884 18.4553 22.3672 18.2341 22.3672 17.9637V15.9974C22.3672 15.7271 22.5884 15.5059 22.8588 15.5059H31.7071C31.9775 15.5059 32.1987 15.7271 32.1987 15.9974V17.9637C32.1987 18.2341 31.9775 18.4553 31.7071 18.4553ZM23.3503 17.4722H31.2156V16.489H23.3503V17.4722Z" fill="#3D4543" stroke="#3D4543" stroke-width="0.560365"/>
<path d="M13.0235 18.4553H4.17517C3.9048 18.4553 3.68359 18.2341 3.68359 17.9637V15.9974C3.68359 15.7271 3.9048 15.5059 4.17517 15.5059H13.0235C13.2939 15.5059 13.5151 15.7271 13.5151 15.9974V17.9637C13.5151 18.2341 13.2939 18.4553 13.0235 18.4553ZM4.66675 17.4722H12.532V16.489H4.66675V17.4722Z" fill="#3D4543" stroke="#3D4543" stroke-width="0.560365"/>
<path d="M17.7162 25.0818C17.6523 25.0818 17.5835 25.0719 17.5245 25.0425C14.5898 23.7889 12.4416 21.1885 11.7731 18.067C11.7141 17.7966 11.8911 17.5312 12.1614 17.4722C12.4318 17.4132 12.6972 17.5902 12.7562 17.8605C13.356 20.6625 15.2731 23.0024 17.908 24.138C18.1587 24.2461 18.2717 24.5312 18.1685 24.7819C18.0898 24.9638 17.9129 25.0818 17.7162 25.0818Z" fill="#3D4543" stroke="#3D4543" stroke-width="0.560365"/>
<path d="M14.007 25.829C9.31731 25.8634 5.22739 22.6386 4.17542 18.067C4.11643 17.7966 4.2934 17.5312 4.56376 17.4722C4.83413 17.4132 5.09958 17.5902 5.15857 17.8605C5.99917 21.8423 9.80889 24.8458 14.007 24.8458C18.205 24.8458 22.0147 21.8423 22.8553 17.8605C22.9143 17.5902 23.1798 17.4132 23.4501 17.4722C23.7205 17.5312 23.8975 17.7966 23.8385 18.067C22.7865 22.6386 18.6966 25.8634 14.007 25.829Z" fill="#3D4543" stroke="#3D4543" stroke-width="0.560365"/>
<path d="M17.9399 29.7615C10.35 29.7615 4.17578 24.4672 4.17578 17.9637C4.17578 17.6933 4.39699 17.4721 4.66736 17.4721C4.93773 17.4721 5.15893 17.6933 5.15893 17.9637C5.15893 23.9265 10.8907 28.7784 17.9399 28.7784C24.9891 28.7784 30.7209 23.9265 30.7209 17.9637C30.7209 17.6933 30.9421 17.4721 31.2125 17.4721C31.4829 17.4721 31.7041 17.6933 31.7041 17.9637C31.7041 24.4672 25.5299 29.7615 17.9399 29.7615Z" fill="#3D4543" stroke="#3D4543" stroke-width="0.560365"/>
<path d="M27.2806 15.9974C27.0103 15.9974 26.7891 15.7762 26.7891 15.5058V5.67432C26.7891 5.40395 27.0103 5.18274 27.2806 5.18274C27.551 5.18274 27.7722 5.40395 27.7722 5.67432V15.5058C27.7722 15.7762 27.551 15.9974 27.2806 15.9974Z" fill="#3D4543" stroke="#3D4543" stroke-width="0.560365"/>
<path d="M23.8038 16.489C23.7252 16.489 23.6514 16.4693 23.5826 16.4349C23.3368 16.3218 23.2287 16.0269 23.3417 15.7811C23.3417 15.7811 23.3417 15.7762 23.3466 15.7762L26.8221 8.8941C26.9253 8.6434 27.2153 8.52542 27.466 8.62865C27.7168 8.73188 27.8347 9.02191 27.7315 9.27262C27.7217 9.29719 27.7118 9.31686 27.6971 9.33652L24.2216 16.2186C24.143 16.3759 23.9808 16.4791 23.8038 16.489Z" fill="#3D4543" stroke="#3D4543" stroke-width="0.560365"/>
<path d="M30.7206 16.489C30.5338 16.489 30.3666 16.3858 30.2831 16.2186L26.842 9.33656C26.7388 9.08585 26.8568 8.79582 27.1075 8.69259C27.3336 8.59919 27.5941 8.68276 27.717 8.89414L31.1581 15.7762C31.281 16.0171 31.1827 16.312 30.9418 16.4349C30.873 16.4693 30.7992 16.489 30.7206 16.489Z" fill="#3D4543" stroke="#3D4543" stroke-width="0.560365"/>
<path d="M8.59705 15.9974C8.32668 15.9974 8.10547 15.7762 8.10547 15.5058V5.67432C8.10547 5.40395 8.32668 5.18274 8.59705 5.18274C8.86741 5.18274 9.08862 5.40395 9.08862 5.67432V15.5058C9.08862 15.7762 8.86741 15.9974 8.59705 15.9974Z" fill="#3D4543" stroke="#3D4543" stroke-width="0.560365"/>
<path d="M5.12802 16.489C5.04937 16.489 4.97563 16.4693 4.90681 16.4349C4.66103 16.3218 4.55288 16.0269 4.66594 15.7811C4.66594 15.7811 4.66594 15.7762 4.67086 15.7762L8.1463 8.8941C8.24953 8.6434 8.53957 8.52542 8.79027 8.62865C9.04097 8.73188 9.15895 9.02191 9.05572 9.27262C9.04589 9.29719 9.03606 9.31686 9.02131 9.33652L5.54586 16.2186C5.46721 16.3759 5.30499 16.4791 5.12802 16.489Z" fill="#3D4543" stroke="#3D4543" stroke-width="0.560365"/>
<path d="M12.0448 16.489C11.858 16.489 11.6909 16.3858 11.6073 16.2186L8.16625 9.33656C8.06302 9.08585 8.181 8.79582 8.4317 8.69259C8.65782 8.59919 8.91836 8.68276 9.04125 8.89414L12.4823 15.7762C12.6052 16.0171 12.5069 16.312 12.266 16.4349C12.1972 16.4693 12.1234 16.489 12.0448 16.489Z" fill="#3D4543" stroke="#3D4543" stroke-width="0.560365"/>
</svg>
