<svg width="35" height="36" viewBox="0 0 35 36" fill="none" xmlns="http://www.w3.org/2000/svg">
<path d="M24.0743 14.8447H11.4023M21.9196 14.8447L21.0012 30.7799C20.9769 31.1833 20.7994 31.5621 20.505 31.8388C20.2106 32.1156 19.8215 32.2693 19.4175 32.2686H16.0592C15.6551 32.2693 15.2661 32.1156 14.9717 31.8388C14.6772 31.5621 14.4997 31.1833 14.4755 30.7799L13.5563 14.8447H21.9196ZM17.738 3.75717C16.4545 3.76538 15.2038 4.1632 14.1515 4.89798C13.0991 5.63275 12.2947 6.66982 11.8448 7.87187C11.3949 9.07392 11.3207 10.3843 11.6321 11.6294C11.9434 12.8746 12.6255 13.9958 13.5882 14.8447H21.8885C22.8512 13.9958 23.5334 12.8745 23.8447 11.6292C24.156 10.384 24.0817 9.0736 23.6317 7.87152C23.1817 6.66943 22.3772 5.63237 21.3248 4.89766C20.2723 4.16294 19.0215 3.76523 17.738 3.75717Z" stroke="#3D4543" stroke-width="2.10137" stroke-linecap="round" stroke-linejoin="round"/>
</svg>
