<svg width="35" height="36" viewBox="0 0 35 36" fill="none" xmlns="http://www.w3.org/2000/svg">
<path d="M4.27734 26.0317C4.27734 27.3078 4.78425 28.5315 5.68654 29.4338C6.58884 30.3361 7.81261 30.843 9.08865 30.843C10.3647 30.843 11.5885 30.3361 12.4908 29.4338C13.3931 28.5315 13.9 27.3078 13.9 26.0317C13.9 24.7557 13.3931 23.5319 12.4908 22.6296C11.5885 21.7273 10.3647 21.2204 9.08865 21.2204C7.81261 21.2204 6.58884 21.7273 5.68654 22.6296C4.78425 23.5319 4.27734 24.7557 4.27734 26.0317ZM20.315 26.0317C20.315 27.3078 20.8219 28.5315 21.7242 29.4338C22.6265 30.3361 23.8503 30.843 25.1263 30.843C26.4024 30.843 27.6262 30.3361 28.5284 29.4338C29.4307 28.5315 29.9376 27.3078 29.9376 26.0317C29.9376 24.7557 29.4307 23.5319 28.5284 22.6296C27.6262 21.7273 26.4024 21.2204 25.1263 21.2204C23.8503 21.2204 22.6265 21.7273 21.7242 22.6296C20.8219 23.5319 20.315 24.7557 20.315 26.0317Z" stroke="#3D4543" stroke-width="2" stroke-linecap="round" stroke-linejoin="round"/>
<path d="M13.8984 26.0317V5.18271H29.9361V26.0317M13.8984 11.5978H29.9361" stroke="#3D4543" stroke-width="2" stroke-linecap="round" stroke-linejoin="round"/>
</svg>
