<svg width="35" height="36" viewBox="0 0 35 36" fill="none" xmlns="http://www.w3.org/2000/svg">
<path d="M11.4052 32.2686H22.8098C28.5406 32.2686 29.567 29.9734 29.8664 27.1793L30.9356 15.7747C31.3205 12.2963 30.3226 9.45944 24.2354 9.45944H9.97964C3.89245 9.45944 2.89455 12.2963 3.27945 15.7747L4.34863 27.1793C4.648 29.9734 5.67442 32.2686 11.4052 32.2686Z" stroke="#3D4543" stroke-width="2.54532" stroke-miterlimit="10" stroke-linecap="round" stroke-linejoin="round"/>
<path d="M11.4062 9.45943V8.31897C11.4062 5.79571 11.4062 3.75714 15.9681 3.75714H18.249C22.8108 3.75714 22.8108 5.79571 22.8108 8.31897V9.45943" stroke="#3D4543" stroke-width="2.54532" stroke-miterlimit="10" stroke-linecap="round" stroke-linejoin="round"/>
<path d="M19.9601 19.4384V20.864C19.9601 20.8782 19.9601 20.8782 19.9601 20.8925C19.9601 22.4464 19.9458 23.7151 17.109 23.7151C14.2863 23.7151 14.2578 22.4606 14.2578 20.9068V19.4384C14.2578 18.0128 14.2578 18.0128 15.6834 18.0128H18.5345C19.9601 18.0128 19.9601 18.0128 19.9601 19.4384Z" stroke="#3D4543" stroke-width="2.54532" stroke-miterlimit="10" stroke-linecap="round" stroke-linejoin="round"/>
<path d="M30.8627 16.5873C27.5696 18.9823 23.8061 20.4078 19.957 20.8925" stroke="#3D4543" stroke-width="2.54532" stroke-miterlimit="10" stroke-linecap="round" stroke-linejoin="round"/>
<path d="M3.73828 16.9722C6.94582 19.1676 10.5668 20.4934 14.259 20.9068" stroke="#3D4543" stroke-width="2.54532" stroke-miterlimit="10" stroke-linecap="round" stroke-linejoin="round"/>
</svg>
