<svg width="35" height="36" viewBox="0 0 35 36" fill="none" xmlns="http://www.w3.org/2000/svg">
<g clip-path="url(#clip0_2282_13453)">
<path d="M30.346 31.2503H29.3277C28.2476 31.2503 27.2116 30.8212 26.4477 30.0573C25.6838 29.2934 25.2547 28.2574 25.2547 27.1773C25.2547 28.2574 24.8256 29.2934 24.0617 30.0573C23.2978 30.8212 22.2619 31.2503 21.1816 31.2503C20.1014 31.2503 19.0654 30.8212 18.3015 30.0573C17.5377 29.2934 17.1085 28.2574 17.1085 27.1773C17.1085 28.2574 16.6794 29.2934 15.9156 30.0573C15.1517 30.8212 14.1157 31.2503 13.0355 31.2503C11.9552 31.2503 10.9192 30.8212 10.1554 30.0573C9.39154 29.2934 8.96242 28.2574 8.96242 27.1773C8.96242 28.2574 8.53331 29.2934 7.76944 30.0573C7.0056 30.8212 5.9696 31.2503 4.88936 31.2503H3.87109" stroke="#3D4543" stroke-width="2.10137" stroke-linecap="round" stroke-linejoin="round"/>
<path d="M7.94141 8.84847C7.94141 7.76823 8.37052 6.73223 9.13439 5.96839C9.89823 5.20453 10.9342 4.77541 12.0145 4.77541C13.0947 4.77541 14.1307 5.20453 14.8946 5.96839C15.6584 6.73223 16.0875 7.76823 16.0875 8.84847V23.1042" stroke="#3D4543" stroke-width="2.10137" stroke-linecap="round" stroke-linejoin="round"/>
<path d="M22.1992 4.77541C23.2794 4.77541 24.3154 5.20453 25.0793 5.96839C25.8432 6.73223 26.2723 7.76823 26.2723 8.84847V23.1042" stroke="#3D4543" stroke-width="2.10137" stroke-linecap="round" stroke-linejoin="round"/>
<path d="M16.0898 12.9215H26.2725" stroke="#3D4543" stroke-width="2.10137" stroke-linecap="round" stroke-linejoin="round"/>
<path d="M16.0898 19.0311H26.2725" stroke="#3D4543" stroke-width="2.10137" stroke-linecap="round" stroke-linejoin="round"/>
</g>
<defs>
<clipPath id="clip0_2282_13453">
<rect width="28.5114" height="28.5114" fill="white" transform="translate(2.85156 3.75714)"/>
</clipPath>
</defs>
</svg>
