<svg width="35" height="36" viewBox="0 0 35 36" fill="none" xmlns="http://www.w3.org/2000/svg">
<path d="M30.432 13.6118C29.9186 13.6118 29.502 14.0283 29.502 14.5417V17.3309H27.6427V14.5417C27.6427 13.0037 26.3915 11.7525 24.8535 11.7525H16.7966C15.2586 11.7525 14.0073 13.0037 14.0073 14.5417V15.4716V17.3309H13.5073C13.8247 16.7835 14.0073 16.1487 14.0073 15.4716C14.0073 13.4213 12.339 11.753 10.2887 11.753C8.23846 11.753 6.57016 13.4213 6.57016 15.4716C6.57016 16.1487 6.7528 16.7835 7.0702 17.3309H4.71086V8.9638C4.71086 8.45039 4.29434 8.03387 3.78093 8.03387C3.26752 8.03387 2.85156 8.45039 2.85156 8.9638C2.85156 9.41039 2.85156 25.2503 2.85156 25.698C2.85156 26.2114 3.26752 26.628 3.78149 26.628C4.29545 26.628 4.71142 26.2114 4.71142 25.698V22.9088H29.5032V25.698C29.5032 26.2114 29.9197 26.628 30.4331 26.628C30.9465 26.628 31.363 26.2114 31.363 25.698C31.363 25.3294 31.363 15.1169 31.363 14.5417C31.3619 14.0283 30.9454 13.6118 30.432 13.6118ZM15.8672 14.5417C15.8672 14.0288 16.2843 13.6118 16.7971 13.6118H24.8546C25.3675 13.6118 25.7846 14.0288 25.7846 14.5417V17.3309H15.8672V14.5417ZM10.2893 13.6118C11.3145 13.6118 12.1486 14.4459 12.1486 15.4711C12.1486 16.4962 11.3145 17.3304 10.2893 17.3304C9.26416 17.3304 8.43001 16.4962 8.43001 15.4711C8.42945 14.4459 9.2636 13.6118 10.2893 13.6118ZM29.5026 21.0495H4.71086V19.1902C5.87856 19.1902 28.5248 19.1902 29.5026 19.1902V21.0495Z" fill="#3D4543"/>
<path d="M14.0073 15.4716V14.5417C14.0073 13.0037 15.2586 11.7525 16.7966 11.7525H24.8535C26.3915 11.7525 27.6427 13.0037 27.6427 14.5417V17.3309H29.502V14.5417C29.502 14.0283 29.9186 13.6118 30.432 13.6118C30.9454 13.6118 31.3619 14.0283 31.363 14.5417C31.363 15.1169 31.363 25.3294 31.363 25.698C31.363 26.2114 30.9465 26.628 30.4331 26.628C29.9197 26.628 29.5032 26.2114 29.5032 25.698V22.9088H4.71142V25.698C4.71142 26.2114 4.29545 26.628 3.78149 26.628C3.26752 26.628 2.85156 26.2114 2.85156 25.698C2.85156 25.2503 2.85156 9.41039 2.85156 8.9638C2.85156 8.45039 3.26752 8.03387 3.78093 8.03387C4.29434 8.03387 4.71086 8.45039 4.71086 8.9638V17.3309H7.0702C6.7528 16.7835 6.57016 16.1487 6.57016 15.4716C6.57016 13.4213 8.23846 11.753 10.2887 11.753C12.339 11.753 14.0073 13.4213 14.0073 15.4716ZM14.0073 15.4716V17.3309H13.5073C13.8247 16.7835 14.0073 16.1487 14.0073 15.4716ZM15.8672 14.5417C15.8672 14.0288 16.2843 13.6118 16.7971 13.6118H24.8546C25.3675 13.6118 25.7846 14.0288 25.7846 14.5417V17.3309H15.8672V14.5417ZM10.2893 13.6118C11.3145 13.6118 12.1486 14.4459 12.1486 15.4711C12.1486 16.4962 11.3145 17.3304 10.2893 17.3304C9.26416 17.3304 8.43001 16.4962 8.43001 15.4711C8.42945 14.4459 9.2636 13.6118 10.2893 13.6118ZM29.5026 21.0495H4.71086V19.1902C5.87856 19.1902 28.5248 19.1902 29.5026 19.1902V21.0495Z" stroke="#3D4543" stroke-width="0.280183"/>
</svg>
