<svg width="30" height="30" viewBox="0 0 30 30" fill="none" xmlns="http://www.w3.org/2000/svg">
<path d="M14.3799 12.7135H8.30905V10.8137C8.30905 10.5003 8.56386 10.2455 8.87723 10.2455H13.8117C14.1251 10.2455 14.3799 10.5003 14.3799 10.8137V12.7135ZM15.6095 10.8141V10.8137C15.6095 10.5003 15.8643 10.2455 16.1777 10.2455H21.1122C21.4256 10.2455 21.6804 10.5003 21.6804 10.8137V12.7135H15.6056L15.6095 10.8141ZM26.3915 23.3927H25.3141C25.2808 23.3927 25.2544 23.3663 25.2544 23.3331V21.8506C25.2544 21.5132 24.9791 21.2379 24.6418 21.2379H5.35629C5.01892 21.2379 4.74364 21.5132 4.74364 21.8506V23.3331C4.74364 23.3663 4.71724 23.3927 4.68399 23.3927H3.60228C3.56903 23.3927 3.54263 23.3663 3.54263 23.3331V19.2827H26.4511V23.3331C26.4511 23.3663 26.4247 23.3927 26.3915 23.3927ZM25.7026 12.8222V6.68509C25.7026 5.65387 24.8671 4.81834 23.8359 4.81834H6.15788C5.12666 4.81834 4.29113 5.65387 4.29113 6.68509V12.8185C3.85118 12.9427 3.44567 13.1787 3.11571 13.5127C2.60379 14.0248 2.31733 14.7086 2.31733 15.4379V23.3331C2.31733 24.0411 2.89428 24.618 3.60228 24.618H4.68399C5.39199 24.618 5.96894 24.0411 5.96894 23.3331V22.4632H24.0291V23.3331C24.0291 24.0411 24.6061 24.618 25.3141 24.618H26.3958C27.1038 24.618 27.6807 24.0411 27.6807 23.3331V15.4379C27.6807 14.1934 26.8428 13.1466 25.7026 12.8222ZM6.15788 6.04364H23.8402C24.1923 6.04364 24.4816 6.33292 24.4816 6.68509V12.7135H22.91V10.8137C22.91 9.82556 22.1046 9.0202 21.1165 9.0202H16.182C15.7264 9.0202 15.3147 9.1914 15.0011 9.46915C14.6865 9.19127 14.272 9.0202 13.8203 9.0202H8.88585C7.89773 9.0202 7.09237 9.82556 7.09237 10.8137V12.7135H5.52074V6.68509C5.52074 6.3323 5.81064 6.04364 6.15788 6.04364ZM3.98071 14.3769C4.26534 14.0923 4.63707 13.9388 5.04169 13.9388H24.9564C25.7826 13.9388 26.4554 14.6117 26.4554 15.4379V18.0574H3.54263V15.4379C3.54263 15.0373 3.69626 14.6614 3.98071 14.3769Z" fill="#3D4543" stroke="#3D4543" stroke-width="0.36338"/>
</svg>
