<svg width="35" height="35" viewBox="0 0 35 35" fill="none" xmlns="http://www.w3.org/2000/svg">
<path d="M14.4603 8.06401C15.6702 5.96801 17.6633 4.43851 20.001 3.812C22.3387 3.18549 24.8295 3.51328 26.9255 4.72326C29.0215 5.93325 30.551 7.92631 31.1775 10.264C31.804 12.6017 31.4762 15.0925 30.2663 17.1885L29.9215 17.7835C29.8055 17.9845 29.6144 18.1311 29.3902 18.1912C29.166 18.2512 28.9272 18.2198 28.7263 18.1038L22.6625 14.6038L19.2833 20.5188C21.6283 21.231 23.6443 22.8498 25.0845 24.9428C24.4499 24.901 23.8217 25.0913 23.317 25.4783C21.637 23.2873 19.229 21.875 16.625 21.875C14.021 21.875 11.613 23.2873 9.933 25.48C9.42854 25.0924 8.80034 24.9014 8.1655 24.9428C10.1255 22.0938 13.1478 20.125 16.625 20.125C16.9103 20.125 17.192 20.139 17.4703 20.1635L21.147 13.7288L14.4375 9.85251C14.2365 9.73648 14.0899 9.54536 14.0298 9.32121C13.9698 9.09706 14.0012 8.85823 14.1173 8.65726L14.4603 8.06226V8.06401ZM16.072 8.77801L19.0523 10.4983C19.0585 10.4882 19.0649 10.4783 19.0715 10.4685C20.0095 9.17351 20.8915 8.17776 22.0448 7.30451C22.9061 6.66775 23.8289 6.11845 24.7993 5.66476C23.2078 5.10851 21.4738 5.11406 19.886 5.6805C18.2981 6.24693 16.9521 7.34009 16.072 8.77801ZM24.507 13.6465C25.3208 12.2185 25.711 11.0915 25.8475 9.99776C25.9578 9.11751 25.9088 8.22151 25.7443 7.15226C24.6435 7.67376 23.8088 8.16376 23.1018 8.69926C22.1638 9.40976 21.4165 10.227 20.5748 11.3768L24.507 13.6465ZM26.0225 14.5215L28.8418 16.149C29.6059 14.7434 29.8925 13.1275 29.6583 11.5448C29.4241 9.96218 28.6818 8.49853 27.5433 7.37451C27.6675 8.35451 27.7008 9.27851 27.5835 10.2148C27.4103 11.599 26.9185 12.95 26.0225 14.5215ZM9.1665 27.2878C9.10653 27.1077 8.98967 26.9521 8.83353 26.8443C8.67738 26.7365 8.49042 26.6823 8.30083 26.69C8.11124 26.6977 7.92929 26.7668 7.7824 26.887C7.63552 27.0071 7.53167 27.1717 7.4865 27.356C7.189 28.5705 6.6255 29.2373 5.98325 29.624C5.31125 30.03 4.4555 30.1875 3.5 30.1875C3.26794 30.1875 3.04538 30.2797 2.88128 30.4438C2.71719 30.6079 2.625 30.8305 2.625 31.0625C2.625 31.2946 2.71719 31.5171 2.88128 31.6812C3.04538 31.8453 3.26794 31.9375 3.5 31.9375C4.6165 31.9375 5.83275 31.759 6.888 31.1238C7.51703 30.7438 8.04716 30.2202 8.435 29.596C10.5228 32.2578 14.5985 32.2455 16.625 29.568C18.6848 32.2875 22.855 32.2578 24.9113 29.4683C25.4698 30.2283 26.1981 30.8473 27.0382 31.276C27.8783 31.7047 28.8069 31.9312 29.75 31.9375C29.9821 31.9375 30.2046 31.8453 30.3687 31.6812C30.5328 31.5171 30.625 31.2946 30.625 31.0625C30.625 30.8305 30.5328 30.6079 30.3687 30.4438C30.2046 30.2797 29.9821 30.1875 29.75 30.1875C28.0298 30.1875 26.3148 29.0675 25.7478 27.2965C25.6911 27.1211 25.5806 26.9681 25.4319 26.8593C25.2832 26.7504 25.1039 26.6913 24.9197 26.6903C24.7354 26.6894 24.5555 26.7466 24.4057 26.8539C24.2558 26.9612 24.1437 27.113 24.0853 27.2878C22.96 30.681 18.5553 30.6373 17.4528 27.4278C17.3936 27.2552 17.2821 27.1055 17.1336 26.9994C16.9852 26.8934 16.8074 26.8364 16.625 26.8364C16.4426 26.8364 16.2648 26.8934 16.1164 26.9994C15.9679 27.1055 15.8564 27.2552 15.7973 27.4278C14.6948 30.6373 10.29 30.681 9.16475 27.2878H9.1665Z" fill="#3D4543"/>
</svg>
