<svg width="35" height="35" viewBox="0 0 35 35" fill="none" xmlns="http://www.w3.org/2000/svg">
<path d="M26.5234 19.6875C25.4959 19.6875 24.4914 19.9922 23.6371 20.5631C22.7827 21.1339 22.1168 21.9453 21.7236 22.8947C21.3304 23.844 21.2275 24.8886 21.428 25.8964C21.6284 26.9042 22.1232 27.8299 22.8498 28.5565C23.5764 29.283 24.5021 29.7778 25.5099 29.9783C26.5177 30.1788 27.5623 30.0759 28.5116 29.6827C29.4609 29.2894 30.2723 28.6235 30.8432 27.7692C31.4141 26.9148 31.7188 25.9103 31.7188 24.8828C31.7144 23.5063 31.1657 22.1873 30.1923 21.214C29.2189 20.2406 27.9 19.6918 26.5234 19.6875V19.6875ZM8.47656 19.6875C7.44903 19.6875 6.44457 19.9922 5.5902 20.5631C4.73584 21.1339 4.06994 21.9453 3.67672 22.8947C3.2835 23.844 3.18062 24.8886 3.38108 25.8964C3.58154 26.9042 4.07635 27.8299 4.80292 28.5565C5.5295 29.283 6.45522 29.7778 7.46301 29.9783C8.4708 30.1788 9.51541 30.0759 10.4647 29.6827C11.414 29.2894 12.2254 28.6235 12.7963 27.7692C13.3672 26.9148 13.6719 25.9103 13.6719 24.8828C13.6676 23.5063 13.1188 22.1873 12.1454 21.214C11.1721 20.2406 9.85312 19.6918 8.47656 19.6875Z" stroke="#3D4543" stroke-width="1.5" stroke-miterlimit="10"/>
<path d="M17.5 24.6094V18.7305L13.125 15.8594L18.5938 9.84375L21.3281 14.7656H25.1562" stroke="#3D4543" stroke-width="1.5" stroke-linecap="round" stroke-linejoin="round"/>
<path d="M21.875 9.29688C22.1631 9.29788 22.4486 9.24176 22.7149 9.13175C22.9812 9.02174 23.223 8.86004 23.4265 8.65599C23.6299 8.45193 23.7908 8.20958 23.9 7.94294C24.0092 7.6763 24.0644 7.39067 24.0625 7.10255C24.0657 6.81587 24.0117 6.53143 23.9037 6.26587C23.7956 6.00031 23.6357 5.75895 23.4333 5.5559C23.2309 5.35286 22.9901 5.19221 22.7249 5.08335C22.4596 4.97449 22.1754 4.91959 21.8887 4.92188C21.6014 4.92099 21.3168 4.97668 21.051 5.08578C20.7853 5.19488 20.5436 5.35526 20.3399 5.55775C19.9284 5.96671 19.6962 6.52239 19.6943 7.10255C19.6925 7.68271 19.9213 8.23983 20.3302 8.65135C20.7392 9.06286 21.2948 9.29507 21.875 9.29688Z" fill="#3D4543"/>
</svg>
