<svg width="35" height="35" viewBox="0 0 35 35" fill="none" xmlns="http://www.w3.org/2000/svg">
<path d="M10.209 11.2501V3.95844L17.5007 8.1251L24.7923 3.95844V11.2501C24.7923 15.2772 21.5277 18.5418 17.5007 18.5418C13.4736 18.5418 10.209 15.2772 10.209 11.2501Z" stroke="#3D4543" stroke-width="1.2" stroke-linecap="round" stroke-linejoin="round"/>
<path d="M17.5 18.5417V31.0417" stroke="#3D4543" stroke-width="1.2" stroke-linecap="round" stroke-linejoin="round"/>
<path d="M17.5 28.9584V31.0418H22.7083C26.1602 31.0418 28.9583 28.2436 28.9583 24.7918V23.7501C28.9583 23.1748 28.4919 22.7084 27.9167 22.7084H23.75C20.2982 22.7084 17.5 25.5066 17.5 28.9584Z" stroke="#3D4543" stroke-width="1.2" stroke-linecap="round" stroke-linejoin="round"/>
<path d="M6.04199 23.7501V24.7918C6.04199 28.2436 8.84022 31.0418 12.292 31.0418H17.5003V28.9584C17.5003 25.5066 14.7021 22.7084 11.2503 22.7084H7.08366C6.50837 22.7084 6.04199 23.1748 6.04199 23.7501Z" stroke="#3D4543" stroke-width="1.2" stroke-linecap="round" stroke-linejoin="round"/>
</svg>
