<svg width="35" height="35" viewBox="0 0 35 35" fill="none" xmlns="http://www.w3.org/2000/svg">
<path d="M11.6669 32.0833H23.3335C29.196 32.0833 30.246 29.7354 30.5523 26.8771L31.646 15.2104C32.0398 11.6521 31.0189 8.75 24.7919 8.75H10.2085C3.98145 8.75 2.96061 11.6521 3.35436 15.2104L4.44811 26.8771C4.75436 29.7354 5.80436 32.0833 11.6669 32.0833Z" stroke="#3D4543" stroke-width="1.5" stroke-miterlimit="10" stroke-linecap="round" stroke-linejoin="round"/>
<path d="M11.667 8.75002V7.58335C11.667 5.0021 11.667 2.91669 16.3337 2.91669H18.667C23.3337 2.91669 23.3337 5.0021 23.3337 7.58335V8.75002" stroke="#3D4543" stroke-width="1.5" stroke-miterlimit="10" stroke-linecap="round" stroke-linejoin="round"/>
<path d="M20.4163 18.9583V20.4167C20.4163 20.4313 20.4163 20.4313 20.4163 20.4458C20.4163 22.0354 20.4018 23.3333 17.4997 23.3333C14.6122 23.3333 14.583 22.05 14.583 20.4604V18.9583C14.583 17.5 14.583 17.5 16.0413 17.5H18.958C20.4163 17.5 20.4163 17.5 20.4163 18.9583Z" stroke="#3D4543" stroke-width="1.5" stroke-miterlimit="10" stroke-linecap="round" stroke-linejoin="round"/>
<path d="M31.5732 16.0417C28.2045 18.4917 24.3545 19.95 20.417 20.4459" stroke="#3D4543" stroke-width="1.5" stroke-miterlimit="10" stroke-linecap="round" stroke-linejoin="round"/>
<path d="M3.82129 16.4354C7.10254 18.6813 10.8067 20.0375 14.5838 20.4604" stroke="#3D4543" stroke-width="1.5" stroke-miterlimit="10" stroke-linecap="round" stroke-linejoin="round"/>
</svg>
