<svg width="31" height="30" viewBox="0 0 31 30" fill="none" xmlns="http://www.w3.org/2000/svg">
<g clip-path="url(#clip0_2057_16595)">
<path d="M26.6908 26.6072H25.798C24.8508 26.6072 23.9425 26.2309 23.2726 25.5611C22.6028 24.8913 22.2266 23.9829 22.2266 23.0357C22.2266 23.9829 21.8503 24.8913 21.1805 25.5611C20.5107 26.2309 19.6023 26.6072 18.6551 26.6072C17.7079 26.6072 16.7995 26.2309 16.1298 25.5611C15.46 24.8913 15.0837 23.9829 15.0837 23.0357C15.0837 23.9829 14.7074 24.8913 14.0377 25.5611C13.3679 26.2309 12.4595 26.6072 11.5123 26.6072C10.5651 26.6072 9.65667 26.2309 8.9869 25.5611C8.31712 24.8913 7.94085 23.9829 7.94085 23.0357C7.94085 23.9829 7.56458 24.8913 6.89479 25.5611C6.22503 26.2309 5.31662 26.6072 4.36942 26.6072H3.47656" stroke="#3D4543" stroke-width="1.8169" stroke-linecap="round" stroke-linejoin="round"/>
<path d="M7.04785 6.96431C7.04785 6.01712 7.42412 5.1087 8.0939 4.43894C8.76367 3.76916 9.67208 3.39288 10.6193 3.39288C11.5665 3.39288 12.4749 3.76916 13.1447 4.43894C13.8144 5.1087 14.1907 6.01712 14.1907 6.96431V19.4643" stroke="#3D4543" stroke-width="1.8169" stroke-linecap="round" stroke-linejoin="round"/>
<path d="M19.5479 3.39288C20.495 3.39288 21.4034 3.76916 22.0732 4.43894C22.743 5.1087 23.1193 6.01712 23.1193 6.96431V19.4643" stroke="#3D4543" stroke-width="1.8169" stroke-linecap="round" stroke-linejoin="round"/>
<path d="M14.1914 10.5357H23.12" stroke="#3D4543" stroke-width="1.8169" stroke-linecap="round" stroke-linejoin="round"/>
<path d="M14.1914 15.8929H23.12" stroke="#3D4543" stroke-width="1.8169" stroke-linecap="round" stroke-linejoin="round"/>
</g>
<defs>
<clipPath id="clip0_2057_16595">
<rect width="25" height="25" fill="white" transform="translate(2.58301 2.50002)"/>
</clipPath>
</defs>
</svg>
