<svg width="35" height="35" viewBox="0 0 35 35" fill="none" xmlns="http://www.w3.org/2000/svg">
<path d="M27.6647 32.0834H7.24805C2.87305 32.0834 2.87305 30.1146 2.87305 27.7084V26.25C2.87305 25.4479 3.5293 24.7917 4.33138 24.7917H30.5814C31.3835 24.7917 32.0397 25.4479 32.0397 26.25V27.7084C32.0397 30.1146 32.0397 32.0834 27.6647 32.0834Z" stroke="#3D4543" stroke-width="1.5" stroke-linecap="round" stroke-linejoin="round"/>
<path d="M30.2165 18.9584V24.7917H4.76855V18.9584C4.76855 13.3584 8.72064 8.6771 13.9852 7.55419C14.7727 7.37919 15.5894 7.29169 16.4352 7.29169H18.5498C19.3956 7.29169 20.2269 7.37919 21.0144 7.55419C26.279 8.69169 30.2165 13.3584 30.2165 18.9584Z" stroke="#3D4543" stroke-width="1.5" stroke-linecap="round" stroke-linejoin="round"/>
<path d="M21.1462 6.56252C21.1462 6.91252 21.1024 7.23335 21.0149 7.55419C20.2274 7.37919 19.3962 7.29169 18.5503 7.29169H16.4357C15.5899 7.29169 14.7732 7.37919 13.9857 7.55419C13.8982 7.23335 13.8545 6.91252 13.8545 6.56252C13.8545 4.55002 15.4878 2.91669 17.5003 2.91669C19.5128 2.91669 21.1462 4.55002 21.1462 6.56252Z" stroke="#3D4543" stroke-width="1.5" stroke-linecap="round" stroke-linejoin="round"/>
<path d="M21.875 16.0417H13.125" stroke="#3D4543" stroke-width="1.5" stroke-linecap="round" stroke-linejoin="round"/>
</svg>
