<svg width="35" height="35" viewBox="0 0 35 35" fill="none" xmlns="http://www.w3.org/2000/svg">
<path d="M30.962 14.0645C31.3467 13.6799 31.3153 13.0412 30.8751 12.7215C27.119 9.99398 22.4976 8.38544 17.5005 8.38544C12.5034 8.38544 7.88199 9.99398 4.12583 12.7215C3.68565 13.0412 3.65429 13.6799 4.03895 14.0645C4.36442 14.39 4.88309 14.4228 5.25649 14.1537C8.70119 11.671 12.93 10.2084 17.5005 10.2084C22.0709 10.2084 26.2997 11.671 29.7444 14.1537C30.1179 14.4228 30.6365 14.39 30.962 14.0645Z" fill="#3D4543"/>
<path d="M27.0325 17.9941C27.4264 17.6001 27.3853 16.9397 26.918 16.6363C24.2072 14.8764 20.9732 13.8542 17.5005 13.8542C14.0277 13.8542 10.7937 14.8764 8.08291 16.6363C7.61562 16.9397 7.57453 17.6001 7.96849 17.9941C8.28327 18.3089 8.78275 18.3526 9.15767 18.1126C11.5659 16.5709 14.4288 15.6771 17.5005 15.6771C20.5721 15.6771 23.435 16.5709 25.8433 18.1126C26.2182 18.3526 26.7177 18.3089 27.0325 17.9941Z" fill="#3D4543"/>
<path d="M23.0532 21.9733C23.4655 21.5611 23.39 20.8714 22.8706 20.6069C21.2585 19.7858 19.4336 19.3229 17.5005 19.3229C15.5674 19.3229 13.7424 19.7858 12.1304 20.6069C11.6109 20.8714 11.5355 21.5611 11.9477 21.9733L11.9751 22.0007C12.2675 22.2931 12.7182 22.348 13.0893 22.1659C14.4205 21.5126 15.9176 21.1459 17.5005 21.1459C19.0833 21.1459 20.5805 21.5126 21.9116 22.1659C22.2828 22.348 22.7335 22.2931 23.0258 22.0007L23.0532 21.9733Z" fill="#3D4543"/>
<path d="M19.434 25.5926C19.7899 25.2366 19.7935 24.6472 19.3608 24.3899C18.8162 24.0662 18.1801 23.8802 17.5005 23.8802C16.8209 23.8802 16.1847 24.0662 15.6401 24.3899C15.2074 24.6472 15.211 25.2366 15.567 25.5926L16.856 26.8816C17.2119 27.2375 17.789 27.2375 18.145 26.8816L19.434 25.5926Z" fill="#3D4543"/>
</svg>
