<svg width="34" height="30" viewBox="0 0 34 30" fill="none" xmlns="http://www.w3.org/2000/svg">
<path d="M8.24992 0.740723H25.7499C26.9171 0.740664 28.0403 1.19082 28.8904 1.99938C29.7406 2.80793 30.2536 3.91396 30.3249 5.09187L30.3333 5.37498V11.0271C31.2417 11.2879 32.0484 11.8258 32.6432 12.5675C33.238 13.3091 33.5919 14.2183 33.6566 15.171L33.6666 15.4861V28.125C33.6665 28.4452 33.5462 28.7535 33.33 28.9874C33.1138 29.2214 32.8178 29.3637 32.5018 29.3855C32.1858 29.4074 31.8734 29.3071 31.6278 29.105C31.3821 28.9029 31.2214 28.6141 31.1783 28.2969L31.1666 28.125V24.3333H2.83325V28.125C2.83324 28.4304 2.72385 28.7255 2.52531 28.9557C2.32677 29.1858 2.05251 29.3355 1.75325 29.3771L1.58325 29.3889C1.28119 29.3889 0.989349 29.2782 0.761701 29.0775C0.534053 28.8768 0.385999 28.5994 0.344919 28.2969L0.333252 28.125V15.4861C0.333252 13.3644 1.74325 11.5765 3.66659 11.0254V5.37498C3.66653 4.19487 4.11174 3.05919 4.91141 2.19959C5.71108 1.33999 6.80495 0.821243 7.96992 0.749149L8.24992 0.740723ZM29.0833 13.3796H4.91659C4.40082 13.3794 3.90331 13.5726 3.52031 13.9219C3.13731 14.2711 2.89607 14.7516 2.84325 15.2704L2.83325 15.4861V21.8055H31.1666V15.4861C31.1664 14.9649 30.9751 14.4623 30.6297 14.0754C30.2843 13.6885 29.8094 13.4448 29.2966 13.3914L29.0833 13.3796ZM25.7499 3.2685H8.24992C7.73416 3.26826 7.23664 3.46147 6.85364 3.81075C6.47065 4.16002 6.2294 4.64053 6.17659 5.15928L6.16659 5.37498V10.8518H8.66659C8.66659 10.4049 8.84218 9.97626 9.15474 9.66023C9.4673 9.34419 9.89122 9.16665 10.3333 9.16665H13.6666C14.0748 9.1667 14.4688 9.31824 14.7739 9.59252C15.0789 9.8668 15.2738 10.2447 15.3216 10.6547L15.3333 10.8518H18.6666C18.6666 10.4049 18.8422 9.97626 19.1547 9.66023C19.4673 9.34419 19.8912 9.16665 20.3333 9.16665H23.6666C24.0748 9.1667 24.4688 9.31824 24.7739 9.59252C25.0789 9.8668 25.2738 10.2447 25.3216 10.6547L25.3333 10.8518H27.8333V5.37498C27.8335 4.85349 27.6424 4.35044 27.297 3.96319C26.9515 3.57594 26.4763 3.33201 25.9633 3.27861L25.7499 3.2685Z" fill="#3D4543"/>
</svg>
