<svg width="35" height="35" viewBox="0 0 35 35" fill="none" xmlns="http://www.w3.org/2000/svg">
<path d="M9.62303 5.70233H24.5915C25.5898 5.70228 26.5506 6.08309 27.2777 6.76708C28.0049 7.45107 28.4437 8.38671 28.5047 9.38316L28.5119 9.62266V14.404C29.2889 14.6246 29.9789 15.0797 30.4877 15.7071C30.9965 16.3345 31.2992 17.1036 31.3545 17.9095L31.363 18.1761V28.8679C31.3629 29.1388 31.26 29.3995 31.0751 29.5975C30.8901 29.7954 30.637 29.9158 30.3667 29.9342C30.0964 29.9527 29.8292 29.8679 29.6191 29.6969C29.409 29.526 29.2716 29.2817 29.2346 29.0133L29.2246 28.8679V25.6603H4.98992V28.8679C4.98991 29.1262 4.89634 29.3759 4.72652 29.5706C4.5567 29.7653 4.32212 29.8919 4.06615 29.9271L3.92074 29.9371C3.66237 29.937 3.41275 29.8435 3.21803 29.6737C3.02332 29.5038 2.89668 29.2693 2.86154 29.0133L2.85156 28.8679V18.1761C2.85156 16.3813 4.0576 14.8688 5.70271 14.4026V9.62266C5.70266 8.62435 6.08347 7.66362 6.76746 6.93645C7.45145 6.20928 8.38709 5.77045 9.38353 5.70946L9.62303 5.70233ZM27.4427 16.3941H6.77189C6.33073 16.3939 5.90518 16.5574 5.57759 16.8528C5.25 17.1483 5.04365 17.5548 4.99847 17.9936L4.98992 18.1761V23.522H29.2246V18.1761C29.2245 17.7352 29.0609 17.31 28.7655 16.9827C28.47 16.6554 28.0637 16.4493 27.6252 16.4041L27.4427 16.3941ZM24.5915 7.84069H9.62303C9.18188 7.84049 8.75633 8.00393 8.42873 8.2994C8.10114 8.59487 7.89479 9.00135 7.84962 9.44018L7.84106 9.62266V14.2558H9.97942C9.97942 13.8777 10.1296 13.5151 10.397 13.2477C10.6643 12.9804 11.0269 12.8302 11.405 12.8302H14.2561C14.6053 12.8302 14.9423 12.9584 15.2033 13.1905C15.4642 13.4225 15.6309 13.7422 15.6717 14.089L15.6817 14.2558H18.5329C18.5329 13.8777 18.6831 13.5151 18.9504 13.2477C19.2177 12.9804 19.5803 12.8302 19.9584 12.8302H22.8096C23.1587 12.8302 23.4958 12.9584 23.7567 13.1905C24.0176 13.4225 24.1843 13.7422 24.2252 14.089L24.2351 14.2558H26.3735V9.62266C26.3737 9.1815 26.2103 8.75595 25.9148 8.42836C25.6193 8.10077 25.2128 7.89442 24.774 7.84924L24.5915 7.84069Z" fill="#3D4543"/>
</svg>
