<svg width="30" height="20" viewBox="0 0 30 20" fill="none" xmlns="http://www.w3.org/2000/svg">
<path d="M28.432 6.70576C27.9186 6.70576 27.502 7.12228 27.502 7.63569V10.4249H25.6427V7.63569C25.6427 6.09769 24.3915 4.84646 22.8535 4.84646H14.7966C13.2586 4.84646 12.0073 6.09769 12.0073 7.63569V8.56561V10.4249H11.5073C11.8247 9.87753 12.0073 9.24273 12.0073 8.56561C12.0073 6.51532 10.339 4.84702 8.28875 4.84702C6.23846 4.84702 4.57016 6.51532 4.57016 8.56561C4.57016 9.24273 4.7528 9.87753 5.0702 10.4249H2.71086V2.0578C2.71086 1.54439 2.29434 1.12787 1.78093 1.12787C1.26752 1.12787 0.851562 1.54439 0.851562 2.0578C0.851562 2.50438 0.851562 18.3443 0.851562 18.792C0.851562 19.3054 1.26752 19.722 1.78149 19.722C2.29545 19.722 2.71142 19.3054 2.71142 18.792V16.0028H27.5032V18.792C27.5032 19.3054 27.9197 19.722 28.4331 19.722C28.9465 19.722 29.363 19.3054 29.363 18.792C29.363 18.4234 29.363 8.2109 29.363 7.63569C29.3619 7.12228 28.9454 6.70576 28.432 6.70576ZM13.8672 7.63569C13.8672 7.12283 14.2843 6.70576 14.7971 6.70576H22.8546C23.3675 6.70576 23.7846 7.12283 23.7846 7.63569V10.4249H13.8672V7.63569ZM8.28931 6.70576C9.31445 6.70576 10.1486 7.53991 10.1486 8.56506C10.1486 9.5902 9.31445 10.4244 8.28931 10.4244C7.26416 10.4244 6.43001 9.5902 6.43001 8.56506C6.42945 7.53991 7.2636 6.70576 8.28931 6.70576ZM27.5026 14.1435H2.71086V12.2842C3.87856 12.2842 26.5248 12.2842 27.5026 12.2842V14.1435Z" fill="#3D4543"/>
<path d="M12.0073 8.56561V7.63569C12.0073 6.09769 13.2586 4.84646 14.7966 4.84646H22.8535C24.3915 4.84646 25.6427 6.09769 25.6427 7.63569V10.4249H27.502V7.63569C27.502 7.12228 27.9186 6.70576 28.432 6.70576C28.9454 6.70576 29.3619 7.12228 29.363 7.63569C29.363 8.2109 29.363 18.4234 29.363 18.792C29.363 19.3054 28.9465 19.722 28.4331 19.722C27.9197 19.722 27.5032 19.3054 27.5032 18.792V16.0028H2.71142V18.792C2.71142 19.3054 2.29545 19.722 1.78149 19.722C1.26752 19.722 0.851562 19.3054 0.851562 18.792C0.851562 18.3443 0.851562 2.50438 0.851562 2.0578C0.851562 1.54439 1.26752 1.12787 1.78093 1.12787C2.29434 1.12787 2.71086 1.54439 2.71086 2.0578V10.4249H5.0702C4.7528 9.87753 4.57016 9.24273 4.57016 8.56561C4.57016 6.51532 6.23846 4.84702 8.28875 4.84702C10.339 4.84702 12.0073 6.51532 12.0073 8.56561ZM12.0073 8.56561V10.4249H11.5073C11.8247 9.87753 12.0073 9.24273 12.0073 8.56561ZM13.8672 7.63569C13.8672 7.12283 14.2843 6.70576 14.7971 6.70576H22.8546C23.3675 6.70576 23.7846 7.12283 23.7846 7.63569V10.4249H13.8672V7.63569ZM8.28931 6.70576C9.31445 6.70576 10.1486 7.53991 10.1486 8.56506C10.1486 9.5902 9.31445 10.4244 8.28931 10.4244C7.26416 10.4244 6.43001 9.5902 6.43001 8.56506C6.42945 7.53991 7.2636 6.70576 8.28931 6.70576ZM27.5026 14.1435H2.71086V12.2842C3.87856 12.2842 26.5248 12.2842 27.5026 12.2842V14.1435Z" stroke="#3D4543" stroke-width="0.280183"/>
</svg>
