<svg width="30" height="24" viewBox="0 0 30 24" fill="none" xmlns="http://www.w3.org/2000/svg">
<path d="M14.3983 9.49633H7.48058V7.33256C7.48058 6.97678 7.76987 6.6875 8.12564 6.6875H13.7532C14.109 6.6875 14.3983 6.97678 14.3983 7.33256V9.49633ZM15.8065 7.33299V7.33256C15.8065 6.97678 16.0957 6.6875 16.4515 6.6875H22.0791C22.4349 6.6875 22.7242 6.97678 22.7242 7.33256V9.49633H15.802L15.8065 7.33299ZM28.0999 21.6755H26.8711C26.8348 21.6755 26.806 21.6467 26.806 21.6104V19.9197C26.806 19.5333 26.4908 19.218 26.1044 19.218H4.11015C3.72378 19.218 3.40852 19.5333 3.40852 19.9197V21.6104C3.40852 21.6467 3.37973 21.6755 3.34343 21.6755H2.10978C2.07347 21.6755 2.04468 21.6467 2.04468 21.6104V16.9941H28.165V21.6104C28.165 21.6467 28.1362 21.6755 28.0999 21.6755ZM27.3172 9.62095V2.62406C27.3172 1.44639 26.363 0.492194 25.1853 0.492194H5.02433C3.84665 0.492194 2.89246 1.44639 2.89246 2.62406V9.61676C2.39106 9.75872 1.92893 10.0279 1.55279 10.4086C0.968431 10.9932 0.641425 11.7738 0.641425 12.6063V21.6104C0.641425 22.4195 1.30072 23.0788 2.10978 23.0788H3.34343C4.15249 23.0788 4.81178 22.4195 4.81178 21.6104V20.6213H25.4028V21.6104C25.4028 22.4195 26.0621 23.0788 26.8711 23.0788H28.1048C28.9138 23.0788 29.5731 22.4195 29.5731 21.6104V12.6063C29.5731 11.1864 28.6177 9.99199 27.3172 9.62095ZM5.02433 1.89545H25.1902C25.5903 1.89545 25.9189 2.22405 25.9189 2.62406V9.49633H24.1323V7.33256C24.1323 6.20403 23.2125 5.28424 22.084 5.28424H16.4564C15.937 5.28424 15.4676 5.47907 15.1096 5.79527C14.7506 5.47892 14.2779 5.28424 13.7631 5.28424H8.13547C7.00694 5.28424 6.08716 6.20403 6.08716 7.33256V9.49633H4.30063V2.62406C4.30063 2.22334 4.62995 1.89545 5.02433 1.89545ZM2.54344 11.3983C2.86749 11.0743 3.29068 10.8996 3.75136 10.8996H26.4632C27.4039 10.8996 28.1699 11.6656 28.1699 12.6063V15.5908H2.04468V12.6063C2.04468 12.1502 2.21959 11.7222 2.54344 11.3983Z" fill="#3D4543" stroke="#3D4543" stroke-width="0.420274"/>
</svg>
