<svg width="24" height="25" viewBox="0 0 24 25" fill="none" xmlns="http://www.w3.org/2000/svg">
<path d="M2 8.60778C2 7.11563 3.20963 5.90601 4.70178 5.90601C5.47706 5.90601 6.16537 5.40991 6.41053 4.67441L6.5 4.40601C6.54219 4.27943 6.56329 4.21615 6.58586 4.16001C6.87405 3.44313 7.54939 2.95637 8.32061 2.90966C8.38101 2.90601 8.44772 2.90601 8.58114 2.90601H15.4189C15.5523 2.90601 15.619 2.90601 15.6794 2.90966C16.4506 2.95637 17.126 3.44313 17.4141 4.16001C17.4367 4.21615 17.4578 4.27943 17.5 4.40601L17.5895 4.67441C17.8346 5.40991 18.5229 5.90601 19.2982 5.90601C20.7904 5.90601 22 7.11563 22 8.60778V17.106C22 18.7862 22 19.6262 21.673 20.268C21.3854 20.8325 20.9265 21.2914 20.362 21.579C19.7202 21.906 18.8802 21.906 17.2 21.906H6.8C5.11984 21.906 4.27976 21.906 3.63803 21.579C3.07354 21.2914 2.6146 20.8325 2.32698 20.268C2 19.6262 2 18.7862 2 17.106V8.60778Z" stroke="#FF595A" stroke-width="2" stroke-linecap="round" stroke-linejoin="round"/>
<path d="M12 17.406C14.4853 17.406 16.5 15.3913 16.5 12.906C16.5 10.4207 14.4853 8.40601 12 8.40601C9.51472 8.40601 7.5 10.4207 7.5 12.906C7.5 15.3913 9.51472 17.406 12 17.406Z" stroke="#FF595A" stroke-width="2" stroke-linecap="round" stroke-linejoin="round"/>
</svg>
