<svg width="120" height="120" viewBox="0 0 120 120" fill="none" xmlns="http://www.w3.org/2000/svg">
<path d="M120 59.9996C120 63.9567 114.303 67.2846 113.539 71.0163C112.776 74.748 116.734 79.926 115.284 83.3549C113.833 86.7837 107.379 87.5026 105.319 90.5528C103.259 93.6022 105.02 99.8325 102.427 102.426C99.8333 105.019 93.6031 103.257 90.5537 105.318C87.5043 107.378 86.7855 113.833 83.3557 115.283C79.9269 116.734 74.7488 112.775 71.0171 113.538C67.2854 114.302 63.9575 119.999 60.0004 119.999C56.0433 119.999 52.7154 114.302 48.9837 113.538C45.252 112.775 40.074 116.733 36.6451 115.283C33.2163 113.832 32.4974 107.378 29.4472 105.318C26.3969 103.258 20.1675 105.019 17.5741 102.426C14.9807 99.8325 16.743 93.6022 14.6822 90.5528C12.6223 87.5034 6.1667 86.7846 4.71684 83.3549C3.26698 79.9252 7.22494 74.748 6.46172 71.0163C5.69676 67.2846 0 63.9575 0 59.9996C0 56.0416 5.69676 52.7146 6.46085 48.9829C7.22407 45.2512 3.26611 40.0731 4.71597 36.6443C6.1667 33.2154 12.6215 32.4966 14.6814 29.4463C16.7413 26.396 14.9799 20.1667 17.5733 17.5733C20.1667 14.9799 26.3969 16.7422 29.4463 14.6814C32.4957 12.6206 33.2145 6.16583 36.6443 4.71597C40.0731 3.26523 45.2512 7.22407 48.9829 6.46085C52.7146 5.69676 56.0425 0 59.9996 0C63.9567 0 67.2846 5.69676 71.0163 6.46085C74.748 7.22407 79.926 3.26611 83.3549 4.71597C86.7837 6.1667 87.5026 12.6215 90.5528 14.6814C93.6022 16.7413 99.8325 14.9799 102.426 17.5733C105.019 20.1667 103.257 26.3969 105.318 29.4463C107.379 32.4957 113.833 33.2145 115.283 36.6443C116.734 40.0731 112.775 45.2512 113.538 48.9829C114.302 52.7146 120 56.0425 120 59.9996Z" fill="#FF595A"/>
<path d="M99.347 37.6441L91.7714 30.0693C90.6627 28.9606 88.8656 28.9606 87.7569 30.0693L49.071 68.757L32.2435 51.9295C31.1348 50.8208 29.3377 50.8208 28.229 51.9295L20.6533 59.5043C19.5446 60.613 19.5446 62.4101 20.6533 63.5188L47.0641 89.9305C48.1728 91.0392 49.9699 91.0392 51.0787 89.9305L99.3479 41.6595C100.457 40.5508 100.457 38.7528 99.347 37.6441Z" fill="white"/>
</svg>
