<svg width="20" height="20" viewBox="0 0 20 20" fill="none" xmlns="http://www.w3.org/2000/svg">
<path d="M2.5 5.51282H17.8846" stroke="#FF595A" stroke-width="1.2" stroke-linecap="round" stroke-linejoin="round"/>
<path d="M4.42188 5.51282H15.9603V17.0513C15.9603 17.3913 15.8252 17.7174 15.5848 17.9578C15.3444 18.1982 15.0183 18.3333 14.6783 18.3333H5.70393C5.3639 18.3333 5.03781 18.1982 4.79738 17.9578C4.55695 17.7174 4.42188 17.3913 4.42188 17.0513V5.51282Z" stroke="#FF595A" stroke-width="1.2" stroke-linecap="round" stroke-linejoin="round"/>
<path d="M6.98828 5.51281V4.87178C6.98828 4.02173 7.32596 3.20649 7.92704 2.60541C8.52811 2.00434 9.34336 1.66666 10.1934 1.66666C11.0435 1.66666 11.8587 2.00434 12.4598 2.60541C13.0609 3.20649 13.3985 4.02173 13.3985 4.87178V5.51281" stroke="#FF595A" stroke-width="1.2" stroke-linecap="round" stroke-linejoin="round"/>
<path d="M8.26953 9.36084V14.491" stroke="#FF595A" stroke-width="1.2" stroke-linecap="round" stroke-linejoin="round"/>
<path d="M12.1172 9.36084V14.491" stroke="#FF595A" stroke-width="1.2" stroke-linecap="round" stroke-linejoin="round"/>
</svg>
