<svg width="20" height="20" viewBox="0 0 20 20" fill="none" xmlns="http://www.w3.org/2000/svg">
<path d="M17.8168 3.68681C18.0202 3.89021 18.0202 4.21998 17.8168 4.42338L16.7304 5.50972L14.6471 3.42638L15.7334 2.34005C15.9368 2.13665 16.2666 2.13665 16.47 2.34005L17.8168 3.68681Z" fill="#FF595A"/>
<path d="M15.9939 6.24629L13.9105 4.16295L6.81366 11.2598C6.75648 11.317 6.7134 11.3867 6.68784 11.4634L5.84975 13.9777C5.78189 14.1812 5.97557 14.3749 6.17916 14.3071L8.69341 13.469C8.77012 13.4434 8.83982 13.4003 8.89699 13.3432L15.9939 6.24629Z" fill="#FF595A"/>
<path fill-rule="evenodd" clip-rule="evenodd" d="M2.71094 15.7292C2.71094 16.5921 3.41049 17.2917 4.27344 17.2917H15.7318C16.5947 17.2917 17.2943 16.5921 17.2943 15.7292V9.47917C17.2943 9.19152 17.0611 8.95833 16.7734 8.95833C16.4858 8.95833 16.2526 9.19152 16.2526 9.47917V15.7292C16.2526 16.0168 16.0194 16.25 15.7318 16.25H4.27344C3.98579 16.25 3.7526 16.0168 3.7526 15.7292V4.27083C3.7526 3.98319 3.98579 3.75 4.27344 3.75H11.0443C11.3319 3.75 11.5651 3.51681 11.5651 3.22917C11.5651 2.94152 11.3319 2.70833 11.0443 2.70833H4.27344C3.41049 2.70833 2.71094 3.40789 2.71094 4.27083V15.7292Z" fill="#FF595A"/>
</svg>
