<svg width="32" height="32" viewBox="0 0 32 32" fill="none" xmlns="http://www.w3.org/2000/svg">
<path d="M20.7723 16C20.7723 18.64 18.6389 20.7734 15.9989 20.7734C13.3589 20.7734 11.2256 18.64 11.2256 16C11.2256 13.36 13.3589 11.2267 15.9989 11.2267C18.6389 11.2267 20.7723 13.36 20.7723 16Z" stroke="#C8C8C8" stroke-width="2.67" stroke-linecap="round" stroke-linejoin="round"/>
<path d="M15.9998 27.0266C20.7065 27.0266 25.0931 24.2533 28.1465 19.4533C29.3465 17.5733 29.3465 14.4133 28.1465 12.5333C25.0931 7.73329 20.7065 4.95996 15.9998 4.95996C11.2931 4.95996 6.90646 7.73329 3.85312 12.5333C2.65312 14.4133 2.65312 17.5733 3.85312 19.4533C6.90646 24.2533 11.2931 27.0266 15.9998 27.0266Z" stroke="#C8C8C8" stroke-width="2.67" stroke-linecap="round" stroke-linejoin="round"/>
</svg>
