<svg width="40" height="40" viewBox="0 0 40 40" fill="none" xmlns="http://www.w3.org/2000/svg">
<path d="M34.3103 36.6668H5.57471C5.25718 36.6668 5 36.4096 5 36.0921V34.9426C5 33.9908 5.77227 33.2185 6.72414 33.2185H33.1609C34.1128 33.2185 34.8851 33.9908 34.8851 34.9426V36.0921C34.8851 36.4096 34.6279 36.6668 34.3103 36.6668ZM6.14943 35.5174H33.7356V34.9426C33.7356 34.6251 33.4785 34.3679 33.1609 34.3679H6.72414C6.40661 34.3679 6.14943 34.6251 6.14943 34.9426V35.5174Z" fill="#3D4543"/>
<path d="M15.3448 10.23H6.72414C5.77227 10.23 5 9.45774 5 8.50588C5 7.55401 5.77227 6.78174 6.72414 6.78174H15.3448C15.6624 6.78174 15.9195 7.03892 15.9195 7.35645V9.6553C15.9195 9.97283 15.6624 10.23 15.3448 10.23ZM6.72414 7.93116C6.40661 7.93116 6.14943 8.18835 6.14943 8.50588C6.14943 8.8234 6.40661 9.08059 6.72414 9.08059H14.7701V7.93116H6.72414Z" fill="#3D4543"/>
<path d="M33.1609 10.23H24.5402C24.2226 10.23 23.9655 9.97283 23.9655 9.6553V7.35645C23.9655 7.03892 24.2226 6.78174 24.5402 6.78174H33.1609C34.1127 6.78174 34.885 7.55401 34.885 8.50588C34.885 9.45774 34.1127 10.23 33.1609 10.23ZM25.1149 9.08059H33.1609C33.4784 9.08059 33.7356 8.8234 33.7356 8.50588C33.7356 8.18835 33.4784 7.93116 33.1609 7.93116H25.1149V9.08059Z" fill="#3D4543"/>
<path d="M30.8622 34.3677H9.02308C8.70555 34.3677 8.44836 34.1105 8.44836 33.793V9.65503C8.44836 9.33751 8.70555 9.08032 9.02308 9.08032H15.3449C15.6624 9.08032 15.9196 9.33751 15.9196 9.65503V12.5286H23.9656V9.65503C23.9656 9.33751 24.2228 9.08032 24.5403 9.08032H30.8622C31.1797 9.08032 31.4369 9.33751 31.4369 9.65503V33.793C31.4369 34.1105 31.1797 34.3677 30.8622 34.3677ZM9.59779 33.2183H30.2874V10.2297H25.115V13.1033C25.115 13.4208 24.8578 13.678 24.5403 13.678H15.3449C15.0274 13.678 14.7702 13.4208 14.7702 13.1033V10.2297H9.59779V33.2183Z" fill="#3D4543"/>
<path d="M23.3908 34.3675H16.4943C16.1767 34.3675 15.9196 34.1103 15.9196 33.7928V26.8962C15.9196 26.5787 16.1767 26.3215 16.4943 26.3215H23.3908C23.7083 26.3215 23.9655 26.5787 23.9655 26.8962V33.7928C23.9655 34.1103 23.7083 34.3675 23.3908 34.3675ZM17.069 33.2181H22.8161V27.471H17.069V33.2181Z" fill="#3D4543"/>
<path d="M19.9425 34.3675C19.625 34.3675 19.3678 34.1103 19.3678 33.7928V26.8962C19.3678 26.5787 19.625 26.3215 19.9425 26.3215C20.26 26.3215 20.5172 26.5787 20.5172 26.8962V33.7928C20.5172 34.1103 20.26 34.3675 19.9425 34.3675Z" fill="#3D4543"/>
<path d="M24.5404 13.6781H15.345C15.0274 13.6781 14.7703 13.4209 14.7703 13.1034V3.90796C14.7703 3.59044 15.0274 3.33325 15.345 3.33325H24.5404C24.8579 3.33325 25.1151 3.59044 25.1151 3.90796V13.1034C25.1151 13.4209 24.8579 13.6781 24.5404 13.6781ZM15.9197 12.5287H23.9657V4.48268H15.9197V12.5287Z" fill="#3D4543"/>
<path d="M17.6436 11.3795C17.326 11.3795 17.0688 11.1223 17.0688 10.8047V6.20704C17.0688 5.88951 17.326 5.63232 17.6436 5.63232C17.9611 5.63232 18.2183 5.88951 18.2183 6.20704V10.8047C18.2183 11.1223 17.9611 11.3795 17.6436 11.3795Z" fill="#3D4543"/>
<path d="M22.2413 11.3795C21.9238 11.3795 21.6666 11.1223 21.6666 10.8047V6.20704C21.6666 5.88951 21.9238 5.63232 22.2413 5.63232C22.5589 5.63232 22.8161 5.88951 22.8161 6.20704V10.8047C22.8161 11.1223 22.5589 11.3795 22.2413 11.3795Z" fill="#3D4543"/>
<path d="M22.2413 9.08033H17.6436C17.326 9.08033 17.0688 8.82315 17.0688 8.50562C17.0688 8.18809 17.326 7.93091 17.6436 7.93091H22.2413C22.5588 7.93091 22.816 8.18809 22.816 8.50562C22.816 8.82315 22.5588 9.08033 22.2413 9.08033Z" fill="#3D4543"/>
<path d="M15.3449 19.4253H11.8966C11.5791 19.4253 11.3219 19.1682 11.3219 18.8506V15.4023C11.3219 15.0848 11.5791 14.8276 11.8966 14.8276H15.3449C15.6624 14.8276 15.9196 15.0848 15.9196 15.4023V18.8506C15.9196 19.1682 15.6624 19.4253 15.3449 19.4253ZM12.4713 18.2759H14.7702V15.9771H12.4713V18.2759Z" fill="#3D4543"/>
<path d="M15.3449 25.1724H11.8966C11.5791 25.1724 11.3219 24.9152 11.3219 24.5977V21.1494C11.3219 20.8319 11.5791 20.5747 11.8966 20.5747H15.3449C15.6624 20.5747 15.9196 20.8319 15.9196 21.1494V24.5977C15.9196 24.9152 15.6624 25.1724 15.3449 25.1724ZM12.4713 24.023H14.7702V21.7241H12.4713V24.023Z" fill="#3D4543"/>
<path d="M21.6665 19.4253H18.2183C17.9007 19.4253 17.6436 19.1682 17.6436 18.8506V15.4023C17.6436 15.0848 17.9007 14.8276 18.2183 14.8276H21.6665C21.9841 14.8276 22.2413 15.0848 22.2413 15.4023V18.8506C22.2413 19.1682 21.9841 19.4253 21.6665 19.4253ZM18.793 18.2759H21.0918V15.9771H18.793V18.2759Z" fill="#3D4543"/>
<path d="M21.6665 25.1724H18.2183C17.9007 25.1724 17.6436 24.9152 17.6436 24.5977V21.1494C17.6436 20.8319 17.9007 20.5747 18.2183 20.5747H21.6665C21.9841 20.5747 22.2413 20.8319 22.2413 21.1494V24.5977C22.2413 24.9152 21.9841 25.1724 21.6665 25.1724ZM18.793 24.023H21.0918V21.7241H18.793V24.023Z" fill="#3D4543"/>
<path d="M27.9884 19.4253H24.5402C24.2226 19.4253 23.9655 19.1682 23.9655 18.8506V15.4023C23.9655 15.0848 24.2226 14.8276 24.5402 14.8276H27.9884C28.306 14.8276 28.5632 15.0848 28.5632 15.4023V18.8506C28.5632 19.1682 28.306 19.4253 27.9884 19.4253ZM25.1149 18.2759H27.4137V15.9771H25.1149V18.2759Z" fill="#3D4543"/>
<path d="M27.9884 25.1724H24.5402C24.2226 25.1724 23.9655 24.9152 23.9655 24.5977V21.1494C23.9655 20.8319 24.2226 20.5747 24.5402 20.5747H27.9884C28.306 20.5747 28.5632 20.8319 28.5632 21.1494V24.5977C28.5632 24.9152 28.306 25.1724 27.9884 25.1724ZM25.1149 24.023H27.4137V21.7241H25.1149V24.023Z" fill="#3D4543"/>
</svg>
