<svg width="141" height="122" viewBox="0 0 141 122" fill="none" xmlns="http://www.w3.org/2000/svg">
<g opacity="0.2">
<path d="M131.005 121.559H9.99494C4.4763 121.559 0 117.083 0 111.564V10.9009C0 5.38231 4.4763 0.906006 9.99494 0.906006H131.005C136.524 0.906006 141 5.38231 141 10.9009V111.564C141 117.083 136.524 121.559 131.005 121.559Z" fill="#C8C8C8"/>
<path d="M9.99609 105.139V17.3263C9.99609 13.7781 12.8732 10.9009 16.4214 10.9009H124.581C128.129 10.9009 131.006 13.7781 131.006 17.3263V105.139C131.006 108.687 128.129 111.564 124.581 111.564H16.4214C12.8732 111.564 9.99609 108.687 9.99609 105.139Z" fill="white"/>
<path d="M96.5555 63.1246C94.5993 60.8971 91.1297 60.8971 89.1735 63.1246L84.3331 68.6289C82.327 70.9135 78.7431 70.8421 76.8298 68.4861L61.0235 49.0746C59.0531 46.6543 55.3621 46.6543 53.3988 49.0746L9.99219 102.412V116.44H42.283H115.853H131.002V102.298L96.5555 63.1246Z" fill="#C8C8C8"/>
<path d="M103.503 51.1949C110.324 51.1949 115.854 45.6652 115.854 38.844C115.854 32.0228 110.324 26.4931 103.503 26.4931C96.682 26.4931 91.1523 32.0228 91.1523 38.844C91.1523 45.6652 96.682 51.1949 103.503 51.1949Z" fill="#C8C8C8"/>
</g>
</svg>
