<svg width="30" height="30" viewBox="0 0 30 30" fill="none" xmlns="http://www.w3.org/2000/svg">
<path d="M21.25 23.0376H16.25L10.6875 26.7375C9.86248 27.2875 8.75 26.7001 8.75 25.7001V23.0376C5 23.0376 2.5 20.5376 2.5 16.7876V9.28748C2.5 5.53748 5 3.03748 8.75 3.03748H21.25C25 3.03748 27.5 5.53748 27.5 9.28748V16.7876C27.5 20.5376 25 23.0376 21.25 23.0376Z" stroke="#3D4543" stroke-width="2" stroke-miterlimit="10" stroke-linecap="round" stroke-linejoin="round"/>
<path d="M15 14.2V13.9375C15 13.0875 15.525 12.6375 16.05 12.275C16.5625 11.925 17.075 11.475 17.075 10.65C17.075 9.49999 16.15 8.57495 15 8.57495C13.85 8.57495 12.925 9.49999 12.925 10.65" stroke="#3D4543" stroke-width="2" stroke-linecap="round" stroke-linejoin="round"/>
<path d="M14.9944 17.1875H15.0056" stroke="#3D4543" stroke-width="2" stroke-linecap="round" stroke-linejoin="round"/>
</svg>
