<svg width="40" height="40" viewBox="0 0 40 40" fill="none" xmlns="http://www.w3.org/2000/svg">
<path d="M25.6499 8.68337L27.9999 13.3834C28.3166 14.0334 29.1666 14.65 29.8832 14.7834L34.1333 15.4834C36.8499 15.9334 37.4833 17.9 35.5333 19.8667L32.2166 23.1834C31.6666 23.7334 31.3499 24.8167 31.5333 25.6L32.4832 29.7C33.2332 32.9334 31.4999 34.2 28.6499 32.5L24.6666 30.1334C23.9499 29.7 22.7499 29.7 22.0333 30.1334L18.0499 32.5C15.1999 34.1834 13.4666 32.9334 14.2166 29.7L15.1666 25.6C15.3499 24.8334 15.0333 23.75 14.4833 23.1834L11.1666 19.8667C9.2166 17.9167 9.84993 15.95 12.5666 15.4834L16.8166 14.7834C17.5332 14.6667 18.3833 14.0334 18.6999 13.3834L21.0499 8.68337C22.2999 6.13337 24.3666 6.13337 25.6499 8.68337Z" stroke="#3D4543" stroke-width="2" stroke-linecap="round" stroke-linejoin="round"/>
<path d="M13.3333 8.33337H3.33325" stroke="#3D4543" stroke-width="2" stroke-linecap="round" stroke-linejoin="round"/>
<path d="M8.33325 31.6666H3.33325" stroke="#3D4543" stroke-width="2" stroke-linecap="round" stroke-linejoin="round"/>
<path d="M4.99992 20H3.33325" stroke="#3D4543" stroke-width="2" stroke-linecap="round" stroke-linejoin="round"/>
</svg>
