<svg width="40" height="40" viewBox="0 0 40 40" fill="none" xmlns="http://www.w3.org/2000/svg">
<path d="M14.1667 31.6667V35.3334C14.1667 35.8001 14.1667 36.0334 14.0758 36.2117C13.9959 36.3685 13.8685 36.496 13.7117 36.5759C13.5334 36.6667 13.3 36.6667 12.8333 36.6667H9.66667C9.19996 36.6667 8.9666 36.6667 8.78834 36.5759C8.63154 36.496 8.50406 36.3685 8.42416 36.2117C8.33333 36.0334 8.33333 35.8001 8.33333 35.3334V31.6667M31.6667 31.6667V35.3334C31.6667 35.8001 31.6667 36.0334 31.5758 36.2117C31.4959 36.3685 31.3685 36.496 31.2117 36.5759C31.0334 36.6667 30.8 36.6667 30.3333 36.6667H27.1667C26.7 36.6667 26.4666 36.6667 26.2883 36.5759C26.1315 36.496 26.0041 36.3685 25.9242 36.2117C25.8333 36.0334 25.8333 35.8001 25.8333 35.3334V31.6667M5 20H35M5 9.16671H35M10.8333 25.8334H13.3333M26.6667 25.8334H29.1667M13 31.6667H27C29.8003 31.6667 31.2004 31.6667 32.27 31.1217C33.2108 30.6424 33.9757 29.8775 34.455 28.9367C35 27.8671 35 26.467 35 23.6667V11.3334C35 8.53311 35 7.13298 34.455 6.06342C33.9757 5.12261 33.2108 4.35771 32.27 3.87834C31.2004 3.33337 29.8003 3.33337 27 3.33337H13C10.1997 3.33337 8.79961 3.33337 7.73005 3.87834C6.78924 4.35771 6.02433 5.12261 5.54497 6.06342C5 7.13298 5 8.53311 5 11.3334V23.6667C5 26.467 5 27.8671 5.54497 28.9367C6.02433 29.8775 6.78924 30.6424 7.73005 31.1217C8.79961 31.6667 10.1997 31.6667 13 31.6667Z" stroke="#3D4543" stroke-width="2" stroke-linecap="round" stroke-linejoin="round"/>
</svg>
