<svg width="40" height="40" viewBox="0 0 40 40" fill="none" xmlns="http://www.w3.org/2000/svg">
<path opacity="0.5" d="M40 20C40 25.3678 37.8852 30.2419 34.4432 33.8341C30.8026 37.634 25.6774 40 20 40C14.3226 40 9.19691 37.634 5.5568 33.8341C2.11478 30.2419 0 25.3678 0 20C0 8.95433 8.95433 0 20 0C31.0457 0 40 8.95433 40 20Z" fill="white"/>
<path d="M19.9997 21.0733C24.5122 21.0733 28.1703 17.4152 28.1703 12.9027C28.1703 8.39017 24.5122 4.73206 19.9997 4.73206C15.4872 4.73206 11.8291 8.39017 11.8291 12.9027C11.8291 17.4152 15.4872 21.0733 19.9997 21.0733Z" fill="white"/>
<path d="M33.7658 32.1805C33.6055 32.3613 33.4419 32.5398 33.2744 32.7144C29.9285 36.2067 25.2181 38.3813 20.0001 38.3813C14.782 38.3813 10.0716 36.2067 6.72575 32.7144C6.55829 32.5398 6.39466 32.3618 6.23438 32.1805C8.69652 27.0567 13.9356 23.5199 20.0001 23.5199C26.0645 23.5199 31.3036 27.0567 33.7658 32.1805Z" fill="white"/>
</svg>
