<?xml version="1.0" encoding="utf-8"?>
<!-- Generator: Adobe Illustrator 25.2.1, SVG Export Plug-In . SVG Version: 6.00 Build 0)  -->
<svg version="1.1" id="Capa_1" xmlns="http://www.w3.org/2000/svg" xmlns:xlink="http://www.w3.org/1999/xlink" x="0px" y="0px"
	 viewBox="0 0 4513.28 915.15" style="enable-background:new 0 0 4513.28 915.15;" xml:space="preserve">
<style type="text/css">
	.st0{fill:#FF595A;}
</style>
<g>
	<path class="st0" d="M13.28,15.94h224.14v85.89h12.08c41.6-77.84,108.71-102,291.23-102c163.75,0,248.3,18.79,301.98,69.79
		c51,45.64,65.76,106.03,65.76,267.08c0,276.47-61.74,330.16-378.47,330.16c-161.06,0-221.45-22.82-268.42-97.97h-10.73v346.26
		H13.28V15.94z M250.84,340.73c0,123.48,34.89,147.63,210.7,147.63c91.26,0,147.63-9.4,173.13-28.19
		c28.18-20.13,36.24-53.68,36.24-136.89c0-122.13-32.21-144.95-201.31-144.95C279.02,178.34,250.84,198.47,250.84,340.73z"/>
	<path class="st0" d="M970.18,214.57c6.71-92.61,37.58-142.26,111.4-178.5c55.03-25.5,165.08-37.57,355.66-37.57
		c208.03,0,256.34,9.4,310.03,63.08c40.26,42.95,53.68,91.26,53.68,206.69v382.5h-228.16v-87.24h-9.39
		c-20.13,41.61-45.64,64.42-88.58,81.87c-38.93,16.11-99.32,21.47-253.66,21.47c-210.7,0-276.46-46.98-276.46-197.29
		c0-114.08,42.95-177.16,135.54-201.31c57.72-16.11,119.45-20.13,293.93-20.13c110.05,0,142.25,9.4,179.83,49.66h10.73v-33.55
		c0-99.32-18.78-112.74-162.39-112.74c-170.44,0-187.89,5.37-194.6,63.08H970.18z M1182.24,449.45c0,51,36.24,65.76,163.73,65.76
		c167.77,0,214.74-16.11,214.74-72.47c0-25.5-14.76-44.29-41.6-53.69c-14.77-5.37-52.35-6.71-153-6.71
		C1221.15,382.34,1182.24,397.1,1182.24,449.45z"/>
	<path class="st0" d="M2092.16,448.1c4.02,55.03,49.66,71.13,198.64,71.13c154.34,0,198.62-13.42,198.62-59.05
		c0-25.5-20.12-42.95-55.03-46.98c-32.2-2.68-91.26-4.02-324.79-4.02c-179.83-2.68-254.99-59.05-254.99-194.61
		c0-97.97,34.89-157.03,110.05-185.21c51-20.13,162.39-29.53,328.81-29.53c216.08,0,295.26,13.42,348.95,59.05
		c33.56,26.84,45.64,60.39,51,136.89h-241.57c-5.38-20.13-8.06-24.16-16.11-29.52c-20.14-13.42-68.45-18.79-148.98-18.79
		c-148.97,0-194.6,12.08-194.6,52.34c0,25.5,18.79,38.92,56.37,41.6c38.93,2.69,80.53,4.03,324.79,5.37
		c183.87,1.34,253.66,55.03,253.66,197.29c0,181.18-85.89,222.79-453.63,222.79c-230.85,0-310.03-13.42-366.4-65.77
		c-38.91-34.89-55.03-79.18-56.36-153H2092.16z"/>
	<path class="st0" d="M3616.78,448.1c-17.45,175.82-104.68,218.77-444.24,218.77c-183.87,0-271.1-16.11-328.81-59.05
		c-61.74-46.98-80.53-110.05-80.53-272.45c0-170.45,18.79-233.53,85.89-280.5c61.74-42.95,140.92-56.36,347.6-56.36
		c214.74,0,289.9,13.42,347.61,60.39c56.37,46.98,77.84,118.1,77.84,261.71c0,8.05,0,37.57-1.34,64.42h-620.05
		c0,64.42,6.71,85.89,29.54,103.34c25.49,18.79,75.15,26.84,161.04,26.84c151.67,0,179.85-10.73,189.24-67.1H3616.78z
		 M3383.25,254.84c-1.34-49.66-4.02-61.74-18.79-76.5c-21.47-22.82-69.79-32.21-163.73-32.21c-159.71,0-197.29,20.13-199.98,108.71
		H3383.25z"/>
	<path class="st0" d="M3682.51,214.57c6.71-92.61,37.58-142.26,111.4-178.5c55.03-25.5,165.08-37.57,355.66-37.57
		c208.02,0,256.34,9.4,310.03,63.08c40.26,42.95,53.68,91.26,53.68,206.69v382.5h-228.16v-87.24h-9.39
		c-20.13,41.61-45.64,64.42-88.58,81.87c-38.93,16.11-99.32,21.47-253.66,21.47c-210.7,0-276.46-46.98-276.46-197.29
		c0-114.08,42.95-177.16,135.54-201.31c57.72-16.11,119.45-20.13,293.93-20.13c110.05,0,142.25,9.4,179.83,49.66h10.73v-33.55
		c0-99.32-18.78-112.74-162.39-112.74c-170.44,0-187.89,5.37-194.6,63.08H3682.51z M3894.57,449.45c0,51,36.24,65.76,163.73,65.76
		c167.77,0,214.74-16.11,214.74-72.47c0-25.5-14.76-44.29-41.6-53.69c-14.77-5.37-52.35-6.71-153-6.71
		C3933.48,382.34,3894.57,397.1,3894.57,449.45z"/>
</g>
</svg>
