<?xml version="1.0" encoding="utf-8"?>
<!-- Generator: Adobe Illustrator 25.2.1, SVG Export Plug-In . SVG Version: 6.00 Build 0)  -->
<svg version="1.1" id="Capa_1" xmlns="http://www.w3.org/2000/svg" xmlns:xlink="http://www.w3.org/1999/xlink" x="0px" y="0px"
	 viewBox="0 0 4508.42 1135.67" style="enable-background:new 0 0 4508.42 1135.67;" xml:space="preserve">
<style type="text/css">
	.st0{fill:#EA5B5E;}
</style>
<g>
	<path class="st0" d="M0,0v1135.67l299.57-31.3V849.52l447.11-17.89l53.65-71.54V89.42L746.68,31.3L0,0z M505.24,567.83
		l-192.26,17.89V241.44l192.26,26.83V567.83z"/>
	<path class="st0" d="M1664.76,0h-621.49l-58.12,80.48l-44.71,1055.19h277.21l17.89-344.28l223.56-8.94l13.42,353.22h295.09
		l-26.83-1019.42L1664.76,0z M1459.08,567.83l-196.73-31.3V290.62l196.73-17.88V567.83z"/>
	<path class="st0" d="M4481.59,116.25L4405.58,0h-621.49l-58.12,80.48l-44.71,1055.19h277.21l17.88-344.28l223.56-8.94l13.41,353.22
		h295.09L4481.59,116.25z M4199.91,567.83l-196.73-31.3V290.62l196.73-17.88V567.83z"/>
	<polygon class="st0" points="1930.05,80.48 1997.12,22.36 2515.77,0 2681.2,40.24 2681.2,304.04 2645.43,362.16 2453.17,362.16 
		2408.46,241.44 2220.67,272.74 2216.2,420.29 2649.9,473.94 2716.97,608.07 2716.97,1041.77 2618.61,1135.67 1956.88,1135.67 
		1907.7,1032.83 1934.52,746.68 2180.43,746.68 2184.91,871.87 2426.35,871.87 2426.35,684.08 1988.18,634.9 1929.16,585.72 	"/>
	<polygon class="st0" points="2857.07,0 2857.07,1135.67 3541.16,1135.67 3523.27,876.34 3138.75,853.99 3143.22,657.26 
		3366.78,675.14 3375.72,420.29 3143.22,413.58 3134.28,272.74 3496.44,272.74 3514.33,22.36 	"/>
</g>
</svg>
